<svg width="610" height="902" xmlns="http://www.w3.org/2000/svg">
    <title>HHVM Logo</title>
    <path d="M284.881 13.2c4.45-4.4 8.8-8.9 13.34-13.2.12 95.71.03 191.42.04 287.13-.23 2.03.5 4.61-1.31 6.11-98.94 98.9-197.94 197.74-296.84 296.68-.06-96.63.01-193.26-.04-289.89-.55-2.76 2.23-4.18 3.76-5.96 93.7-93.61 187.36-187.25 281.05-280.87zm37.15 274.67c96.17-95.85 192.06-191.98 288.22-287.83.33 95.95-.01 191.91.17 287.87-7.54 1-15.11-.47-22.66.14-88.56-.17-177.15.15-265.73-.18z" fill="#878787"/>
    <path d="M312.321 590c-.26-96.02-.04-192.04-.1-288.06 94.53-.01 189.07.03 283.61-.01 1.62-.11 3.21.3 4.74.85-.63.28-1.24.57-1.85.86-49.86 49.93-99.84 99.74-149.74 149.62-45.52 45.61-91.32 90.96-136.66 136.74z" fill="#fff"/>
    <path d="M10.131 599.65c96.07-95.94 192.04-191.98 288.12-287.91.15 95.98.02 191.96.07 287.94-96.07.01-192.13.09-288.19-.03z" fill="#e58622"/>
    <path d="M312.231 609.69c99.35-99.3 198.75-198.55 298.06-297.9.21 57.77.03 115.54.09 173.31-.1 39.53.2 79.08-.15 118.59-99.2 99.42-198.69 198.59-297.97 297.93-.11-97.31-.05-194.62-.03-291.93zm-312.09 292.11c-.11-96.04-.06-192.09-.02-288.14 96.13.02 192.27.02 288.4 0-96.22 95.96-192.26 192.08-288.38 288.14z" fill="#878787"/>
</svg>
