<?xml version="1.0" encoding="utf-8"?>
<!-- Generator: Adobe Illustrator 15.1.0, SVG Export Plug-In . SVG Version: 6.00 Build 0)  -->
<!DOCTYPE svg PUBLIC "-//W3C//DTD SVG 1.1//EN" "http://www.w3.org/Graphics/SVG/1.1/DTD/svg11.dtd">
<svg version="1.1" xmlns="http://www.w3.org/2000/svg" xmlns:xlink="http://www.w3.org/1999/xlink" x="0px" y="0px"
	 width="377.601px" height="377.601px" viewBox="0 0 377.601 377.601" enable-background="new 0 0 377.601 377.601"
	 xml:space="preserve">
<g id="Layer_8" display="none">
	
		<rect x="3" y="3" display="inline" fill="#BE1E2D" stroke="#BE1E2D" stroke-width="6" stroke-miterlimit="10" width="371.601" height="371.601"/>
</g>
<g id="Layer_5">
	<g>
		
			<path id="path2987" fill="#5d091e" d="
			M182.328,66.741c-3.531,0.06-8.936,1.151-14.263,1.752c-3.947,0.445-7.69,1.104-10.924,1.846c-1.142,0.27-3.334,0.75-4.475,1.016
			c-39.029,9.056-66.509,33.313-76.658,67.671c-6.494,21.987-5.654,47.015,2.293,67.718c2.545,6.63,7.247,15.584,10.923,20.83
			c1.862,2.655,3.376,5.009,3.376,5.23c0,0.221-2.007,1.354-4.459,2.522c-3.532,1.682-5.309,2.954-8.583,6.123
			c-4.627,4.479-6.662,7.948-8.408,14.368c-1.367,5.023-1.044,11.451,0.875,17.061c0.726,2.122,1.134,4.018,0.892,4.215
			c-0.467,0.382-4.977,2.087-11.656,4.415c-2.242,0.781-5.825,2.047-7.962,2.815l-3.885,1.4l-1.991-1.34
			c-2.524-1.689-3.206-1.683-4.952,0.078l-1.417,1.414l4.251,2.447c2.334,1.344,5.556,3.157,7.166,4.03l2.931,1.584l1.528-1.046
			c0.842-0.579,1.529-1.119,1.529-1.199c0-0.082-0.931-0.749-2.07-1.478c-1.139-0.729-1.98-1.566-1.879-1.861
			s1.893-1.179,3.981-1.969c2.089-0.792,6.313-2.394,9.395-3.554c3.083-1.161,5.97-2.258,6.418-2.446
			c0.597-0.252,1.608,0.593,3.79,3.17c7.127,8.415,18.126,13.01,28.917,12.076c5.989-0.521,5.92-0.541,8.488,1.829
			c4.567,4.217,10.971,7.363,18.376,9.031c5.498,1.237,7.548,1.338,14.013,0.676c4.326-0.442,10.744-2.312,14.698-4.276
			c4.213-2.092,10.718-7.915,14.013-12.568c0.907-1.279,2.409-4.048,3.344-6.153c1.486-3.343,1.854-3.815,2.915-3.722
			c0.668,0.057,4.649,0.14,8.854,0.184c6.991,0.072,7.796,0.163,9.458,1.185c6.521,4.003,12.27,5.697,19.905,5.846l4.89,0.093
			l3.296,4.169c5.386,6.82,11.267,10.853,20.176,13.845c3.793,1.273,5.425,1.535,11.13,1.754c6.144,0.236,7.12,0.146,11.976-1.093
			c8.398-2.14,14.649-5.609,20.191-11.245c5.608-5.702,7.341-8.522,10.127-16.321c1.854-5.188,2.179-13.266,0.767-19.445
			c-1.851-8.085-6.642-15.642-13.361-21.106c-3.902-3.173-11.733-7.171-15.081-7.691c-3.077-0.479-3.415-1.15-1.622-3.201
			c11.206-12.833,18.818-28.755,22.148-46.273c1.045-5.494,1.275-8.267,1.307-15.998c0.043-10.907-1.067-18.895-3.98-28.552
			c-11.238-37.251-43.798-64.401-82.727-68.996C200.648,66.159,192.432,66.218,182.328,66.741z M177.953,68.248
			c-0.006,0.265,0.334,0.653-0.79,0.887c-0.967,0.201-2.323,0.494-4.054,1.01c-3.986,1.339-11.121,3.795-17.578,6.856
			c-5.034,2.386-6.125,2.721-10.701,3.199c-6.242,0.652-10.292,0.676-10.685,0.062c-0.759-1.187,12.74-6.385,22.108-8.794
			C163.25,69.422,171.049,68.854,177.953,68.248z M197.761,74.601c9.629-0.013,19.244,1.603,28.426,4.907
			c8.472,3.049,14.617,6.212,21.832,11.23c5.149,3.582,15.164,13.053,18.552,17.553c1.324,1.759,2.747,3.597,3.168,4.092
			c0.42,0.494,2.227,3.374,4.013,6.399c3.884,6.577,7.557,15.12,9.221,21.414c0.667,2.524,1.324,4.744,1.449,4.938
			c0.502,0.785,2.243,15.845,2.262,19.521c0.067,14.738-3.701,31.214-9.873,43.09c-3.61,6.942-9.155,15.184-12.82,19.061
			c-1.868,1.976-2.141,2.085-6.226,2.599c-12.997,1.637-25.23,9.705-31.515,20.784c-1.108,1.955-1.667,2.417-3.407,2.846
			c-1.146,0.282-3.232,0.85-4.634,1.245c-1.401,0.396-5.043,1.044-8.105,1.446c-5.949,0.784-17.766,0.894-21.959,0.201
			c-1.401-0.232-3.552-0.544-4.793-0.692c-1.24-0.149-2.568-0.529-2.945-0.831c-0.377-0.303-1.636-2.343-2.803-4.538
			c-3.872-7.289-12.906-14.741-21.768-17.969c-5.062-1.843-9.211-2.495-15.957-2.506h-4.937l-2.452-2.862
			c-6.289-7.364-7.378-8.885-10.924-15.198c-5.554-9.892-9.255-20.51-11.13-31.906c-1.551-9.421-1.244-22.841,0.748-32.49
			c4.561-22.083,17.042-41.964,34.524-54.98C160.995,80.572,179.382,74.625,197.761,74.601z M144.083,81.247
			c2.022-0.004,2.525,0.149,2.516,0.508c-0.009,0.377-1.896,2.021-4.188,3.646c-2.292,1.625-5.496,4.15-7.133,5.616l-2.978,2.66
			l-6.736,0.385c-8.887,0.513-12.07,0.526-12.07,0.047c0-0.693,3.169-3.337,7.898-6.6c8.417-5.808,8.072-5.695,17.198-6.092
			C141.101,81.307,142.869,81.249,144.083,81.247L144.083,81.247z M128.27,95.091c0.508,0.004,0.821,0.024,0.86,0.062
			c0.157,0.151-0.854,1.567-2.245,3.138c-3.183,3.592-7.055,8.54-9.252,11.815l-1.704,2.522l-5.924,0.308
			c-3.263,0.167-7.717,0.428-9.889,0.584c-4.669,0.335-4.84,0.05-2.309-3.616c2.056-2.978,7.829-9.662,10.415-12.061l1.958-1.815
			l9.332-0.569C123.359,95.226,126.747,95.08,128.27,95.091z M112.41,114.137c1.129,0.003,1.837,0.047,1.895,0.138
			c0.114,0.179-0.924,2.616-2.325,5.416c-1.4,2.8-3.55,7.64-4.761,10.753l-2.198,5.661l-3.025,0.307
			c-1.664,0.17-6.179,0.455-10.032,0.632c-8.203,0.375-7.855,0.706-5.702-5.492c1.407-4.047,7.078-15.539,8.042-16.292
			C94.861,114.825,107.518,114.122,112.41,114.137z M100.228,137.843c2.461-0.01,4.015,0.062,4.204,0.245
			c0.155,0.15-0.125,1.847-0.637,3.77c-0.959,3.6-2.428,13.829-2.66,18.599l-0.127,2.692l-2.038,0.323
			c-4.38,0.681-17.993,0.99-18.361,0.416c-0.909-1.42,1.52-20.289,3.073-23.892l0.653-1.523l6.242-0.323
			C94.392,137.951,97.766,137.852,100.228,137.843z M100.992,165.148l0.621,6.831c0.337,3.756,1.192,9.534,1.911,12.845
			c0.718,3.31,1.305,6.261,1.305,6.553c0,0.291-1.204,0.64-2.675,0.784c-1.472,0.145-6.157,0.395-10.415,0.554
			c-8.77,0.327-8.193,0.574-9.268-3.938c-1.562-6.566-2.748-22.448-1.72-23.06c0.21-0.125,4.858-0.306,10.319-0.4L100.992,165.148z
			 M295.423,167.871c0.326,0.017,0.5,0.217,0.495,0.6c-0.048,2.937-1.713,13.928-2.74,18.091
			c-2.325,9.439-6.774,20.002-11.847,28.136c-1.509,2.419-2.183,2.991-5.096,4.308c-3.222,1.456-4.776,1.861-4.776,1.23
			c0-0.163,1.28-2.407,2.85-4.984c3.887-6.38,7.453-14.273,9.633-21.322c1.814-5.863,3.804-15.84,3.822-19.26
			c0.011-1.623,0.335-2.055,3.266-4.307C293.222,168.676,294.709,167.833,295.423,167.871z M101.772,193.484
			c4.679-0.044,4.421,0.624,5.399,3.908c0.443,1.488,2.651,6.328,4.889,10.753c2.238,4.424,3.929,8.158,3.774,8.307
			c-0.155,0.15-4.006,0.458-8.567,0.677c-4.561,0.219-9.579,0.401-11.146,0.416l-2.851,0.03l-2.404-4.707
			c-3.091-6.056-7.059-17.428-6.369-18.23c0.335-0.391,3.883-0.696,10.732-0.938C98.113,193.598,100.213,193.499,101.772,193.484z
			 M117.936,217.96l1.194,1.892c0.663,1.045,2.879,3.823,4.92,6.168c2.041,2.345,3.708,4.45,3.694,4.676
			c-0.013,0.227-2.275,1.468-5.016,2.755c-4.34,2.037-5.429,2.339-8.503,2.415c-2.464,0.06-2.881,0.145-1.37,0.276
			c2.734,0.239,2.875,1.317,0.414,3.216c-0.966,0.744-1.84,1.354-1.943,1.354c-0.102,0-0.792-0.609-1.528-1.354
			c-1.034-1.047-1.216-1.55-0.828-2.216c0.421-0.722,0.293-0.861-0.796-0.861c-1.707,0-3.904-2.281-8.774-9.107
			c-4.425-6.201-5.127-7.481-4.458-8.092c0.259-0.235,5.526-0.59,11.72-0.784L117.936,217.96z M266.491,237.266
			c6.069,0,14.026,3.257,19.395,7.938c1.874,1.634,3.412,3.222,3.408,3.538c-0.003,0.317-2.583,2.346-5.732,4.508
			c-3.149,2.163-7.481,5.174-9.618,6.692c-3.841,2.728-3.863,2.783-3.011,3.877l0.86,1.107l4.301-2.323
			c6.226-3.367,16.316-8.6,16.592-8.6c0.131,0,0.792,1.163,1.465,2.584c1.596,3.37,2.479,9.038,2.135,13.661
			c-0.291,3.895-2.108,10.338-2.915,10.338c-0.261,0-1.46-0.439-2.658-0.97c-3.593-1.59-13.714-5.775-16.579-6.86
			c-2.192-0.832-2.673-0.894-2.673-0.308c0,0.394-0.697,1.495-1.562,2.445l-1.577,1.724l1.625,4.076
			c0.892,2.24,2.62,6.547,3.854,9.568c1.234,3.021,2.246,5.923,2.246,6.446c0,1.04-3.143,2.117-8.886,3.061
			c-9.87,1.622-20.404-1.711-27.852-8.829c-2.133-2.039-4.142-4.185-4.459-4.769c-0.529-0.978-0.327-1.203,2.357-2.661
			c6.331-3.44,10.201-7.301,13.821-13.784c2.596-4.649,4.585-13.619,3.201-14.445c-0.233-0.14-1.149-0.374-2.022-0.522
			c-0.873-0.15-2.139-0.475-2.818-0.724c-1.23-0.452-1.234-0.44-1.48,3.322c-0.137,2.079-0.665,4.737-1.162,5.907
			c-1.083,2.542-0.955,2.556-8.632-0.692c-7.47-3.16-7.344-3.039-5.845-5.584c1.105-1.874,1.735-2.296,6.323-4.169
			c6.571-2.684,14.573-7.335,20.493-11.922C263.6,237.397,263.878,237.266,266.491,237.266z M135.261,237.666l5.318,3.861
			c2.922,2.121,5.859,4.206,6.529,4.63c0.67,0.425,1.06,1.006,0.876,1.293c-0.206,0.321-4.37,0.648-10.908,0.846
			c-5.82,0.176-11.871,0.435-13.44,0.584c-2.532,0.243-3.021,0.138-4.332-0.953l-1.481-1.231l2.293-2.046
			c2.491-2.229,9.055-5.519,12.803-6.415L135.261,237.666z M146.248,237.834c1.781-0.168,6.88,1.297,10.701,3.232
			c3.626,1.836,10.558,7.614,10.558,8.799c0,0.964-0.202,0.916-5.191-1.277c-6.683-2.938-16.72-9.151-16.72-10.353
			C145.596,238.008,145.837,237.875,146.248,237.834z M96.55,239.112c1.506,0.028,2.583,1.239,5.382,4.077l4.363,4.415l-1.72,3.646
			c-0.944,2.003-1.992,4.567-2.34,5.692c-0.365,1.175-1.218,2.442-2.006,2.983c-1.816,1.25-2.724,3.478-2.389,5.893
			c0.168,1.215,0.046,2.109-0.318,2.339c-0.67,0.42-4.24,1.754-12.214,4.568c-3.036,1.071-5.623,1.954-5.733,1.954
			c-0.49,0-1.674-3.016-2.5-6.323c-1.172-4.702-0.538-11.398,1.083-11.398c0.399,0,4.54,1.22,9.204,2.707
			c4.664,1.487,8.526,2.65,8.583,2.584c0.057-0.065,0.255-0.616,0.446-1.215c0.307-0.964-0.079-1.289-3.376-2.892
			c-3.307-1.607-12.575-6.504-13.105-6.923c-0.407-0.32,2.691-4.138,5.143-6.353c1.383-1.25,4.162-3.004,6.179-3.892
			C93.951,239.775,95.378,239.09,96.55,239.112z M151.965,248.942l4.84,2.369c2.662,1.297,7.249,3.169,10.191,4.168l5.351,1.815
			l0.875,2.277c0.931,2.413,1.985,10.632,1.561,12.199c-0.172,0.635-0.708,0.938-1.656,0.938c-1.633,0-14.429-3.435-18.297-4.908
			c-1.459-0.555-2.695-1-2.754-1c-0.061,0-0.107,1.163-0.111,2.584c-0.005,1.423-0.12,2.982-0.255,3.478
			c-0.204,0.745,0.401,1.104,3.567,2.092c4.367,1.365,7.746,2.231,13.376,3.4c4.777,0.991,4.899,1.375,1.943,6.185
			c-2.565,4.169-3.304,4.804-4.491,3.83c-8.277-6.797-15.93-12.707-16.449-12.707c-0.182,0-0.933,0.495-1.672,1.107l-1.337,1.124
			l0.477,8.845c0.269,4.87,0.488,9.802,0.494,10.953l0.017,2.093l-5.478-0.017c-4.504-0.011-6.147-0.234-9.269-1.261
			c-4.326-1.424-9.602-4.136-11.035-5.676c-0.96-1.033-0.957-1.049,0.302-1.816c0.701-0.428,2.978-2.388,5.048-4.354
			c3.535-3.356,3.741-3.69,3.472-5.291c-0.158-0.938-0.862-2.853-1.561-4.262l-1.258-2.569l-1.561,2.662
			c-2.599,4.441-7.931,9.293-10.191,9.275c-1.031-0.007-2.513-2.199-4.666-6.907c-1.292-2.83-1.687-4.38-1.719-6.8l-0.047-3.153
			l9.936-0.169c12.824-0.228,13.249-0.296,13.249-2.2c0-2.021,1.166-4.02,3.345-5.753c1.711-1.362,1.753-1.481,0.732-1.738
			c-1.604-0.405-13.759-8.37-13.759-9.016c0-0.634,4.793-1.001,19.109-1.477L151.965,248.942z M290.169,250.065
			c0.688,0,1.672,1.52,1.672,2.584c0,0.396-2.974,2.077-7.022,3.97c-3.864,1.805-7.248,3.278-7.516,3.275
			c-0.269-0.002,0.308-0.729,1.289-1.615C281.229,255.898,289.454,250.065,290.169,250.065z M79.574,252.526
			c0.903,0,11.842,5.695,13.886,7.23c0.791,0.595,1.204,1.062,0.923,1.046c-1.557-0.087-15.504-4.63-16.194-5.276
			C77.585,254.96,78.709,252.526,79.574,252.526z M112.729,253.68c0.465,0.04,1.69,0.68,2.961,1.555
			c1.454,0.998,5.338,3.56,8.631,5.707c3.293,2.146,5.987,4.007,5.987,4.138c0,0.254-2.493,0.224-4.586-0.061
			c-2.667-0.365-9.98-1.343-10.955-1.463c-0.561-0.068-1.707-0.143-2.548-0.168c-3.005-0.096-3.117-0.499-1.545-5.169
			c0.785-2.329,1.632-4.366,1.895-4.522C112.602,253.676,112.662,253.674,112.729,253.68L112.729,253.68z M222.095,258.957
			c0.093,0.001,0.145,0.001,0.158,0.015c0.113,0.109-0.146,1.642-0.574,3.4c-0.904,3.72-0.569,12.283,0.622,16.106
			c0.557,1.787,0.572,2.392,0.095,2.677c-1.53,0.914-9.288-0.111-12.197-1.615c-1.05-0.543-1.051-0.579-0.126-1.23
			c0.522-0.371,1.125-0.678,1.353-0.678c0.227,0,0.414-1.229,0.414-2.723c0-2.71-0.004-2.709-1.401-2.4
			c-0.771,0.171-2.434,0.645-3.694,1.062c-2.703,0.894-16.55,1.404-20.893,0.77l-2.786-0.416l0.158-3.599
			c0.095-1.981-0.12-5.02-0.478-6.754c-0.357-1.736-0.521-3.266-0.382-3.4c0.139-0.134,3.779,0.021,8.105,0.354
			c8.92,0.688,16.862,0.428,25.59-0.861C218.945,259.238,221.439,258.949,222.095,258.957L222.095,258.957z M232.286,261.372
			c0.921,0.02,3.303,0.856,6.879,2.415c3.025,1.319,5.592,2.654,5.701,2.97c0.108,0.313-0.168,1.115-0.621,1.783
			c-0.453,0.669-1.045,1.216-1.306,1.216c-0.543,0-10.525-7.169-10.988-7.892C231.74,261.533,231.866,261.362,232.286,261.372z
			 M142.235,262.403c-2.377-0.048-4.62,1.277-5.844,3.723c-1.065,2.125-1.071,2.278-0.239,4.385
			c0.473,1.195,1.547,2.729,2.389,3.414c1.186,0.964,2.097,1.246,4.045,1.246c2.134,0,2.798-0.244,4.348-1.615
			c3.381-2.992,2.707-7.751-1.45-10.199C144.434,262.737,143.315,262.424,142.235,262.403z M262.143,262.465
			c-1.02-0.015-2.07,0.165-3.058,0.568c-2.455,1.005-3.54,2.477-3.806,5.154c-0.374,3.761,1.108,5.877,4.937,7.014
			c1.601,0.476,3.951,0.089,5.525-0.907c2.662-1.686,3.706-6.485,1.959-9.062C266.521,263.493,264.386,262.495,262.143,262.465z
			 M231.028,262.941c0.151,0.01,0.31,0.054,0.493,0.123c1.493,0.554,10.828,7.374,10.86,7.938c0.046,0.785-4.506,4.881-7.325,6.584
			c-1.386,0.838-2.807,1.523-3.152,1.523c-1.125,0-2.223-5.059-2.214-10.169C229.698,264.34,229.973,262.87,231.028,262.941z
			 M110.037,264.095c0.599-0.051,2.479,0.158,4.538,0.508c2.354,0.398,6.504,1.087,9.236,1.523c2.732,0.437,4.969,0.968,4.969,1.184
			s-1.663,0.513-3.694,0.662c-6.738,0.494-15.061,0.727-15.367,0.431c-0.467-0.45-0.347-3.97,0.143-4.261
			C109.892,264.123,109.952,264.103,110.037,264.095L110.037,264.095z M100.483,270.895c0.06-0.001,0.108,0.013,0.127,0.03
			c0.146,0.143,0.666,2.201,1.162,4.585c0.559,2.679,1.778,6.123,3.201,9.015c1.267,2.572,2.272,4.692,2.229,4.723
			c-0.043,0.029-1.456,0.178-3.137,0.323c-6.147,0.527-14.212-2.642-19.157-7.523c-1.652-1.632-3.009-3.26-3.009-3.614
			c0-0.757,1.164-1.308,7.389-3.539c2.522-0.904,6.041-2.228,7.818-2.938C98.661,271.334,100.059,270.898,100.483,270.895z
			 M272.875,273.278c0.076,0.005,0.152,0.029,0.239,0.062c12.886,4.955,19.746,7.973,19.746,8.707c0,0.293-0.359,1.086-0.813,1.755
			c-0.921,1.358-1.525,1.458-3.009,0.508c-0.56-0.36-4.516-2.822-8.791-5.461c-4.271-2.642-7.771-5.014-7.771-5.277
			C272.477,273.373,272.648,273.265,272.875,273.278z M272.223,275.479c0.628,0.058,2.47,0.954,5.43,2.678
			c8.672,5.047,12.72,7.827,12.342,8.476c-0.19,0.324-0.801,1.099-1.369,1.707c-0.568,0.609-1.16,1.093-1.323,1.077
			c-0.279-0.025-11.687-10.023-14.283-12.521C271.989,275.902,271.736,275.434,272.223,275.479z M272.875,278.617
			c0.473,0,3.948,2.79,9.937,8.015l3.966,3.477l-1.64,1.63c-0.904,0.901-1.918,1.646-2.246,1.646c-0.327,0-2.426-2.611-4.666-5.799
			C273.82,281.312,272.208,278.617,272.875,278.617z M152.156,279.154c0.729,0.053,2.828,1.555,7.325,5.2
			c7.388,5.99,6.847,5.381,5.749,6.554c-1.22,1.302-1.896,1.264-3.105-0.185c-0.545-0.654-3.11-3.468-5.701-6.246
			c-2.59-2.777-4.605-5.135-4.49-5.245C151.984,279.183,152.052,279.147,152.156,279.154z M271.283,280.093
			c0.042-0.007,0.094,0,0.143,0c0.432,0,10.225,13.439,10.225,14.03c0,0.14-0.745,0.694-1.656,1.231
			c-2.042,1.201-2.874,1.238-3.28,0.123c-0.173-0.475-1.541-3.912-3.042-7.63C271.019,281.27,270.666,280.202,271.283,280.093z
			 M151.153,281.077c0.529,0,10.843,10.956,11.194,11.893c0.1,0.264-0.245,0.789-0.764,1.169c-0.52,0.381-1.205,0.699-1.513,0.708
			s-2.05-2.256-3.87-5.03C151.227,282.231,150.566,281.077,151.153,281.077z M149.799,282.725c0.134-0.006,0.363,0.102,0.621,0.307
			c0.876,0.702,7.915,11.948,7.915,12.646c0,0.259-0.809,0.851-1.799,1.307c-2.092,0.964-2.129,0.964-2.5,0.386
			c-0.336-0.524-4.339-13.888-4.348-14.507C149.687,282.774,149.719,282.728,149.799,282.725z M148,284.078
			c0.052,0.006,0.11,0.024,0.175,0.046c0.6,0.192,4.554,11.922,4.554,13.507c0,0.312-0.726,0.825-1.608,1.124
			c-0.883,0.296-1.692,0.537-1.799,0.537c-0.412,0-0.59-1.426-0.908-6.876c-0.182-3.104-0.474-6.285-0.637-7.077
			C147.582,284.394,147.635,284.039,148,284.078L148,284.078z"/>
	</g>
</g>
<g id="Layer_7">
	<path fill="#5d091e" d="M208.885,120.589c-1.603,0.009-2.159,0.032-3.711,0.075c-1.108,0.195-1.272,2.214,0.463,2.884
		c1.054,0.936,1.093,2.408,1.551,3.442c0.452,1.787,0.512,26.218,0.064,26.645c-0.189,0.179-4.492,0.331-9.563,0.331h-7.226v-13.724
		c0-13.053-0.317-13.538,1.499-16.341c0.204-0.315,0.679-0.731,0.863-0.898c0.6-0.378,0.662-2.316-0.064-2.339
		c-0.352-0.011-12.828,0-12.828,0c-6.666-0.154-9.56,0.029-9.922,0c-1.059-0.084-1.508,2.132-0.303,2.715
		c0.321,0.399,0.603,0.778,0.85,1.208c1.734,3.004,1.802,7.458,1.909,39.355c0.077,23.016-0.063,34.469-0.59,36.678
		c-0.298,0.87-1.07,1.991-1.437,2.364c-0.656,0.469-0.906,2.131-0.097,2.131c0.409-0.001,8.829-0.03,8.829-0.03
		c6.508-0.018,14.112-0.061,14.463,0c0.806,0.03,0.851-2.673,0.126-3.098c-0.281-0.166-0.877-0.984-1.331-1.821
		c-1.776-3.26-2.124-5.004-2.188-19.535l-0.064-10.25l2.711-0.271c3.761-0.369,13.722-0.149,14.489,0.301
		c0.479,0.28,0.618-0.065,0.618,11.199c0,9.046-0.062,13.54-0.581,16.407c-0.403,2.227-1.58,3.632-2.225,4.112
		s-2.02,2.438-0.364,2.956c1.595,0,3.298,0,3.298,0c2.342,0,8.171,0.002,13.033,0c0,0,6.523,0.059,7.831,0s-0.067-2.684-0.067-2.684
		c-1.054-1.098-1.729-1.421-2.21-3.569c-0.965-4.312-0.999-12.554-1.003-38.033v-34.1c0.379-1.714,1.578-2.246,2.046-2.652
		c1.458-0.583,1.499-3.382,0.458-3.382s-2.409,0-2.409,0C218.932,120.645,213.691,120.558,208.885,120.589z"/>
</g>
<g id="Layer_6">
	<circle fill="none" stroke="#5d091e" stroke-width="6" stroke-miterlimit="10" cx="188.801" cy="188.8" r="185.801"/>
</g>
<g id="Layer_3">
	<path fill="#5d091e" d="M199.681,330.355c0.475,0.54,0.894,1.113,1.257,1.721c0.362,0.607,0.714,1.224,1.053,1.847
		c0.339,0.624,0.696,1.239,1.072,1.845c0.377,0.606,0.814,1.178,1.315,1.716c0.496,0.762,0.961,1.526,1.394,2.295
		c0.432,0.769,0.943,1.487,1.536,2.155c0.202-0.077,1.184-0.553,1.196-0.821c0.012-0.267,0.02-0.513,0.023-0.737
		c-0.139-0.322-0.23-0.719-0.278-1.19c-0.022-0.222-0.04-0.45-0.051-0.688s-0.027-0.466-0.05-0.688
		c-0.054-0.526-0.186-0.982-0.395-1.367c-0.21-0.385-0.63-0.588-1.262-0.607l-0.474-0.792l-0.548-5.785
		c0.066-0.37,0.194-0.663,0.383-0.879c0.188-0.215,0.414-0.378,0.678-0.489c0.265-0.11,0.546-0.181,0.845-0.211
		c0.298-0.03,0.59-0.061,0.876-0.089c0.908-0.093,1.827-0.15,2.756-0.175c0.928-0.024,1.847-0.083,2.756-0.175
		c0.42,0.014,0.745,0.113,0.975,0.3c0.229,0.188,0.41,0.428,0.545,0.722c0.135,0.295,0.227,0.615,0.274,0.96
		c0.048,0.346,0.091,0.698,0.127,1.059c0.043,0.416,0.078,0.832,0.107,1.249c0.029,0.418,0.066,0.849,0.111,1.292
		c0.018,0.166,0.034,0.332,0.051,0.499c0.017,0.166,0.047,0.331,0.09,0.495c0.008,0.335-0.072,0.589-0.237,0.759
		c-0.167,0.171-0.356,0.31-0.568,0.415s-0.417,0.218-0.615,0.335c-0.198,0.119-0.322,0.307-0.375,0.563
		c0.308,3.555,0.645,7.07,1.012,10.548c0.366,3.479,0.699,6.953,0.999,10.424c0.031,0.053,0.053,0.135,0.064,0.245
		c0.048,0.472-0.147,0.82-0.583,1.047c-0.436,0.226-0.938,0.39-1.504,0.488c-0.567,0.1-1.125,0.156-1.675,0.171
		c-0.549,0.014-0.901,0.028-1.058,0.044l-0.467,0.048l-1.324,0.134c-0.52,0.053-0.099,0.131-0.568,0.025
		c-0.47-0.106-0.853-0.453-1.148-1.039c-0.588-1.145-1.289-2.235-2.103-3.273s-1.516-2.143-2.106-3.315
		c-0.949-1.08-1.766-2.216-2.45-3.407c-0.686-1.19-1.453-2.358-2.304-3.505c-0.205,0.049-1.211,0.078-1.188,0.3
		c0.014,0.14,0.039,0.263,0.077,0.371c0.036,0.108,0.062,0.231,0.076,0.37c0.046,0.443,0.044,0.878-0.005,1.303
		s-0.049,0.874-0.001,1.345c0.048,0.472,0.108,0.941,0.183,1.41c0.073,0.469,0.148,0.951,0.226,1.447
		c0.103,0.242,0.251,0.409,0.444,0.501c0.192,0.093,0.396,0.17,0.613,0.232c0.216,0.062,0.414,0.146,0.596,0.254
		c0.182,0.108,0.313,0.312,0.396,0.611c0.065,0.386,0.125,0.779,0.179,1.18s0.101,0.795,0.141,1.183
		c0.027,0.277,0.07,0.638,0.129,1.079c0.058,0.442,0.077,0.896,0.06,1.359c-0.019,0.465-0.095,0.886-0.227,1.263
		c-0.132,0.378-0.374,0.641-0.727,0.788c-0.158-0.012-0.315-0.01-0.471,0.006c-0.156,0.016-0.312,0.031-0.468,0.048
		c-0.598,0.061-1.183,0.168-1.757,0.325c-0.574,0.156-1.156,0.307-1.744,0.45c-0.396-0.017-0.813,0.005-1.253,0.063
		c-0.44,0.059-0.875,0.096-1.307,0.112c-0.431,0.016-0.836-0.035-1.215-0.15s-0.718-0.354-1.017-0.716
		c-0.058-0.302-0.107-0.604-0.151-0.909c-0.045-0.303-0.081-0.607-0.112-0.913c-0.064-0.637-0.117-1.275-0.155-1.916
		c-0.039-0.641-0.091-1.279-0.155-1.917l-0.059-0.583c0.043-0.34,0.156-0.583,0.339-0.728c0.182-0.145,0.384-0.283,0.606-0.418
		s0.425-0.274,0.606-0.419s0.295-0.388,0.339-0.728c-0.103-0.242-0.17-0.515-0.201-0.82c-0.025-0.249-0.031-0.508-0.02-0.775
		c0.013-0.267,0.005-0.539-0.023-0.816c-0.025-0.25-0.089-0.488-0.191-0.716c-0.102-0.228-0.165-0.467-0.19-0.716
		c-0.115-1.137-0.195-2.249-0.24-3.337s-0.124-2.187-0.236-3.296c-0.09-0.887-0.221-1.784-0.391-2.69
		c-0.145-0.126-0.311-0.207-0.497-0.244c-0.188-0.037-0.375-0.073-0.562-0.111c-0.188-0.036-0.358-0.104-0.512-0.2
		c-0.154-0.096-0.283-0.265-0.386-0.507c-0.063-0.357-0.121-0.729-0.172-1.116c-0.053-0.387-0.099-0.774-0.138-1.163
		c-0.155-1.524-0.218-2.919-0.189-4.182c0.122-0.349,0.339-0.539,0.65-0.57c0.312-0.032,0.607-0.09,0.887-0.175
		c0.211,0.007,0.414,0,0.608-0.02s0.396-0.04,0.604-0.061c1.09-0.111,2.176-0.27,3.256-0.479c1.081-0.207,2.166-0.366,3.257-0.478
		c0.675-0.068,0.396,0.281,0.909,0.439C198.769,329.25,199.245,329.672,199.681,330.355z"/>
	<g>
		<path fill="#5d091e" d="M155.698,330.841c-0.088-0.921-0.321-1.734-0.697-2.44c-0.376-0.706-0.859-1.336-1.448-1.892
			c-0.589-0.555-1.173-1.085-1.75-1.593c-0.364-0.233-0.771-0.415-1.223-0.546c-0.452-0.13-0.817-0.357-1.097-0.682
			c-0.572-0.183-1.135-0.37-1.689-0.563c-0.555-0.192-1.118-0.381-1.689-0.564c-0.646-0.207-1.278-0.395-1.895-0.563
			c-0.618-0.169-1.246-0.282-1.884-0.342c-0.472-0.238-0.931-0.43-1.378-0.573c-0.522-0.168-1.059-0.311-1.609-0.429
			c-0.552-0.118-1.084-0.23-1.598-0.337c-0.539-0.202-1.047-0.431-1.526-0.688c-0.48-0.256-0.98-0.468-1.502-0.636
			c-0.87-0.279-1.486-0.301-1.849-0.066c-0.363,0.234-0.63,0.618-0.8,1.148c-0.068,0.213-0.133,0.434-0.192,0.662
			c-0.06,0.23-0.124,0.451-0.192,0.663c-0.085,0.266-0.162,0.46-0.229,0.585c-0.018,0.141-0.069,0.344-0.154,0.609
			c-0.102,0.318-0.231,0.636-0.387,0.951c-0.157,0.315-0.285,0.633-0.388,0.951c-0.17,0.531-0.215,0.926-0.134,1.186
			c0.081,0.261,0.208,0.462,0.381,0.605c0.173,0.144,0.359,0.269,0.557,0.377c0.198,0.107,0.326,0.287,0.382,0.539
			c-0.172,0.794-0.386,1.588-0.642,2.384c-0.255,0.797-0.534,1.601-0.835,2.41c-0.301,0.812-0.579,1.614-0.835,2.41
			c-0.102,0.318-0.204,0.637-0.306,0.955s-0.18,0.645-0.232,0.979c-0.22,0.428-0.393,0.84-0.521,1.237
			c-0.051,0.159-0.097,0.32-0.135,0.484c-0.039,0.163-0.079,0.311-0.122,0.443c-0.103,0.318-0.223,0.631-0.363,0.938
			c-0.139,0.307-0.318,0.586-0.536,0.838c-0.556-0.062-1.035,0.106-1.437,0.505c-0.402,0.397-0.746,0.829-1.031,1.293
			c-0.021,0.491-0.091,0.922-0.21,1.294c-0.119,0.371-0.263,0.734-0.432,1.09c-0.169,0.356-0.313,0.72-0.432,1.091
			c-0.204,0.637-0.228,1.288-0.071,1.952c0.157,0.665,0.632,1.125,1.428,1.38c0.447,0.144,0.926,0.231,1.436,0.264
			s0.989,0.12,1.437,0.264c0.273,0.087,0.55,0.227,0.831,0.42c0.281,0.192,0.595,0.345,0.943,0.456
			c0.224,0.072,0.456,0.139,0.696,0.201s0.473,0.13,0.696,0.202l0.485,0.155c0.308-0.106,0.635-0.104,0.984,0.008
			c0.198,0.064,0.387,0.139,0.565,0.226c0.178,0.086,0.366,0.161,0.564,0.225c0.348,0.112,0.7,0.21,1.057,0.296
			c0.356,0.084,0.708,0.183,1.056,0.295c0.87,0.278,1.714,0.571,2.534,0.879c0.819,0.307,1.664,0.6,2.534,0.878
			c1.093,0.352,2.201,0.487,3.322,0.408c1.121-0.079,2.19-0.38,3.208-0.902c1.017-0.522,1.928-1.27,2.733-2.24
			s1.437-2.173,1.896-3.605c0.196-0.61,0.323-1.221,0.382-1.831c0.058-0.61,0.016-1.202-0.129-1.775
			c-0.244-0.693-0.458-1.412-0.643-2.16c-0.186-0.746-0.55-1.383-1.094-1.909c0.077-0.238,0.194-0.413,0.353-0.523
			c0.159-0.109,0.339-0.205,0.544-0.286c0.204-0.08,0.41-0.168,0.619-0.263c0.208-0.094,0.396-0.23,0.564-0.411
			c0.609-0.448,1.141-1.039,1.596-1.771c0.454-0.732,0.813-1.51,1.077-2.333C155.635,332.833,155.786,331.762,155.698,330.841z
			 M142.443,343.73c-0.192,0.601-0.477,1.076-0.845,1.414c-0.368,0.339-0.786,0.562-1.24,0.661
			c-0.237,0.052-0.481,0.078-0.728,0.078c-0.185,0-0.373-0.015-0.564-0.044c-0.382-0.059-0.75-0.144-1.09-0.253
			c-0.327-0.104-0.63-0.237-0.902-0.395c-0.349-0.199-0.631-0.488-0.837-0.858l-0.158-0.285l0.1-0.31
			c0.105-0.327,0.201-0.667,0.287-1.017c0.094-0.382,0.203-0.768,0.328-1.156c0.099-0.31,0.214-0.623,0.345-0.94
			c0.152-0.369,0.366-0.716,0.637-1.028l0.248-0.285l0.377,0.028c0.271,0.021,0.55,0.062,0.839,0.121
			c0.284,0.06,0.574,0.135,0.874,0.231c0.396,0.128,0.766,0.289,1.099,0.479c0.357,0.206,0.677,0.464,0.952,0.769l0.1,0.111
			l0.364,1.028l0.007,0.102C142.674,342.696,142.608,343.217,142.443,343.73z M145.738,331.928c-0.049,0.152-0.088,0.31-0.116,0.469
			c-0.042,0.227-0.101,0.462-0.179,0.706c-0.374,1.164-1.128,1.498-1.695,1.573c-0.193,0.026-0.386,0.039-0.575,0.039
			c-0.421,0-0.836-0.064-1.233-0.192c-0.868-0.277-1.409-0.682-1.652-1.233c-0.227-0.511-0.24-1.091-0.037-1.721
			c0.078-0.242,0.167-0.474,0.269-0.692c0.075-0.161,0.142-0.334,0.201-0.518l0.082-0.257l0.003-0.317l0.242-0.271
			c0.421-0.398,0.897-0.601,1.413-0.601c0.207,0,0.419,0.034,0.629,0.102c0.439,0.141,0.853,0.375,1.23,0.697
			c0.258,0.221,0.506,0.395,0.737,0.517l0.246,0.13l0.518,1.312L145.738,331.928z"/>
	</g>
	<g>
		<path fill="#5d091e" d="M183.842,353.039c-0.113-0.18-0.254-0.334-0.424-0.463c-0.17-0.13-0.355-0.247-0.554-0.352
			c-0.2-0.104-0.355-0.246-0.468-0.426c-0.278-0.869-0.502-1.754-0.672-2.653c-0.17-0.9-0.319-1.812-0.447-2.735
			c-0.128-0.923-0.264-1.841-0.406-2.752c-0.143-0.911-0.339-1.813-0.588-2.708c-0.157-0.521-0.224-1.073-0.203-1.659
			s-0.073-1.143-0.281-1.668c0.118-0.128,0.245-0.22,0.382-0.275c0.137-0.056,0.273-0.104,0.409-0.147
			c0.357-0.159,0.611-0.399,0.763-0.72c0.151-0.321,0.246-0.675,0.286-1.063c0.04-0.388,0.042-0.737,0.009-1.05
			c-0.034-0.312-0.032-0.647,0.005-1.008c0.037-0.359,0.1-0.725,0.191-1.094c0.09-0.369,0.154-0.733,0.191-1.094
			s0.018-0.691-0.055-0.993c-0.074-0.302-0.269-0.581-0.583-0.837c-0.542-0.084-1.091-0.168-1.646-0.254
			c-0.556-0.084-1.105-0.155-1.651-0.211c-0.623-0.064-1.225-0.084-1.804-0.06l-0.805-0.209c-0.62-0.091-1.249-0.17-1.884-0.235
			c-0.636-0.065-1.265-0.13-1.888-0.193c-0.987-0.102-1.987-0.19-3.002-0.267s-2.032-0.139-3.05-0.188
			c-0.292,0.026-0.522,0.171-0.693,0.434c-0.171,0.263-0.304,0.592-0.397,0.988s-0.156,0.811-0.187,1.241
			c-0.031,0.432-0.065,0.827-0.102,1.188c-0.045,0.443-0.097,0.88-0.154,1.308c-0.058,0.429-0.066,0.834-0.027,1.216
			c0.04,0.382,0.154,0.73,0.345,1.044c0.19,0.313,0.51,0.592,0.957,0.834c-0.652,2.006-1.352,3.973-2.101,5.897
			c-0.749,1.927-1.51,3.845-2.283,5.754c-0.124,0.184-0.219,0.405-0.285,0.664c-0.066,0.26-0.151,0.51-0.254,0.751
			s-0.229,0.438-0.375,0.592c-0.147,0.153-0.377,0.228-0.692,0.224c-0.427,0.068-0.721,0.248-0.881,0.539
			c-0.162,0.292-0.276,0.638-0.343,1.036c-0.067,0.4-0.115,0.802-0.143,1.204c-0.029,0.403-0.125,0.765-0.289,1.084
			c-0.009,0.083-0.011,0.167-0.006,0.252c0.004,0.084,0.001,0.183-0.01,0.293c-0.023,0.222-0.061,0.463-0.114,0.724
			c-0.053,0.261-0.092,0.516-0.118,0.765c-0.04,0.389-0.027,0.775,0.038,1.16c0.065,0.385,0.255,0.705,0.57,0.962
			c0.917,0.262,1.843,0.441,2.777,0.537c0.909,0.094,1.834,0.146,2.777,0.159s1.897,0.041,2.864,0.084
			c0.383-0.156,0.646-0.417,0.788-0.78s0.235-0.753,0.278-1.169c0.022-0.222,0.04-0.451,0.051-0.688
			c0.011-0.236,0.028-0.466,0.051-0.688c0.006-0.056,0.019-0.125,0.041-0.206c0.021-0.082,0.035-0.15,0.041-0.206
			c-0.041-0.368-0.041-0.753,0-1.155c0.041-0.401,0.054-0.786,0.04-1.151c-0.015-0.366-0.105-0.697-0.271-0.995
			c-0.167-0.297-0.479-0.511-0.938-0.643l0.03-0.291c0.08-0.775,0.357-1.434,0.833-1.974c0.718-0.094,1.466-0.101,2.245-0.021
			c0.337,0.035,1.7,0.087,2.086,0.154c0.387,0.067,0.729,0.18,1.028,0.336c0.299,0.157,0.537,0.385,0.717,0.684
			c0.179,0.299,0.245,0.684,0.196,1.154c-0.02,0.194-0.079,0.385-0.177,0.57c-0.424,0.04-0.747,0.183-0.968,0.426
			c-0.222,0.244-0.389,0.527-0.5,0.852c-0.112,0.325-0.194,0.674-0.245,1.047c-0.052,0.373-0.121,0.723-0.207,1.05
			c0.014,0.114,0.016,0.227,0.005,0.337c-0.011,0.111-0.024,0.236-0.039,0.374c-0.025,0.25-0.059,0.506-0.098,0.768
			c-0.041,0.263-0.073,0.518-0.099,0.768c-0.091,0.887,0.074,1.514,0.496,1.878c0.421,0.365,1.164,0.604,2.229,0.713
			c0.597,0.061,0.196,0.095,0.799,0.101c0.603,0.005,1.202,0.039,1.8,0.101c0.464-0.177,1.021-0.231,1.669-0.165
			c0.415,0.043,0.834,0.114,1.257,0.214c0.423,0.099,0.841,0.17,1.257,0.213c0.441,0.045,0.864,0.019,1.267-0.08
			c0.404-0.099,0.768-0.327,1.094-0.686l0.671-5.772C183.997,353.448,183.955,353.219,183.842,353.039z M172.752,344l-0.057,0.558
			l-0.505,0.242c-0.313,0.15-0.634,0.234-0.951,0.25c-0.071,0.003-0.143,0.005-0.216,0.005c-0.167,0-0.342-0.009-0.523-0.027
			c-0.298-0.031-0.623-0.071-0.973-0.123c-0.868-0.123-1.392-0.809-1.299-1.705c0.052-0.504,0.256-0.975,0.609-1.399
			c0.143-0.172,0.155-0.289,0.159-0.327l0.012-0.115l0.038-0.109c0.184-0.532,0.362-1.072,0.535-1.621
			c0.206-0.653,0.48-1.225,0.814-1.697l1.274-1.806l0.777,3.239l0.007,0.059c0.084,0.706,0.173,1.427,0.267,2.161
			C172.822,342.394,172.834,343.207,172.752,344z"/>
	</g>
	<g>
		<path fill="#5d091e" d="M249.163,337.143c-0.126-0.721-0.273-1.449-0.444-2.186c-0.171-0.735-0.373-1.461-0.605-2.176
			c-0.837-2.57-1.93-4.662-3.278-6.274c-1.348-1.612-2.837-2.812-4.465-3.602c-1.63-0.788-3.349-1.202-5.159-1.243
			s-3.598,0.226-5.358,0.799l-0.782,0.255c-0.191-0.084-0.385-0.109-0.58-0.075c-0.194,0.035-0.391,0.084-0.59,0.148
			c-0.124,0.04-0.258,0.092-0.402,0.153s-0.291,0.116-0.44,0.165c-0.05,0.017-0.107,0.028-0.174,0.034
			c-0.066,0.008-0.124,0.019-0.174,0.035c-0.815,0.529-1.794,0.979-2.936,1.352c-0.496,0.161-0.999,0.303-1.508,0.425
			c-0.51,0.122-1.004,0.202-1.485,0.242c-0.314,0.132-0.646,0.247-0.999,0.347c-0.352,0.101-0.683,0.223-0.991,0.367
			c-0.31,0.145-0.573,0.348-0.79,0.608c-0.217,0.262-0.335,0.614-0.354,1.061c0.104,0.405,0.224,0.813,0.357,1.225
			s0.27,0.828,0.408,1.252c0.181,0.557,0.374,1.108,0.58,1.657s0.433,1.075,0.68,1.581c0.103,0.23,0.25,0.388,0.441,0.472
			c0.192,0.084,0.386,0.153,0.582,0.206c0.195,0.054,0.386,0.132,0.569,0.232c0.184,0.102,0.327,0.268,0.43,0.497
			c0.137,0.337,0.266,0.669,0.386,0.996s0.236,0.663,0.349,1.007c0.268,0.822,0.512,1.636,0.733,2.443
			c0.222,0.807,0.467,1.621,0.733,2.442c0.173,0.53,0.354,1.043,0.542,1.538s0.407,0.996,0.654,1.502
			c-0.039,0.218-0.028,0.441,0.033,0.67c0.061,0.229,0.13,0.463,0.207,0.702c0.078,0.238,0.141,0.475,0.189,0.707
			c0.049,0.234,0.041,0.464-0.022,0.689c-0.354,0.35-0.556,0.737-0.608,1.165s-0.042,0.863,0.034,1.308s0.188,0.892,0.334,1.342
			c0.147,0.451,0.243,0.873,0.29,1.269c0.137,0.337,0.268,0.697,0.393,1.081s0.269,0.74,0.431,1.068
			c0.161,0.329,0.368,0.605,0.62,0.831s0.581,0.331,0.988,0.315c1.663-0.453,3.389-0.971,5.175-1.553
			c0.868-0.282,1.738-0.581,2.61-0.894c0.872-0.313,1.729-0.651,2.572-1.014c0.133-0.014,0.248-0.037,0.348-0.069
			s0.211-0.068,0.335-0.108c0.396-0.13,0.792-0.288,1.184-0.474c0.393-0.187,0.799-0.348,1.222-0.485
			c0.337-0.227,0.712-0.423,1.126-0.587c0.413-0.163,0.823-0.334,1.232-0.511c0.409-0.178,0.797-0.377,1.164-0.599
			c0.366-0.222,0.685-0.509,0.955-0.86c0.289-0.123,0.543-0.31,0.765-0.558c0.222-0.247,0.413-0.522,0.575-0.824
			c0.163-0.302,0.325-0.604,0.487-0.906c0.162-0.302,0.35-0.59,0.562-0.864c0.015-0.209,0.057-0.414,0.13-0.613
			c0.072-0.2,0.15-0.401,0.235-0.604c0.084-0.203,0.155-0.409,0.21-0.618c0.056-0.208,0.049-0.418-0.02-0.631
			c0.146-0.985,0.276-1.951,0.394-2.897S249.333,338.172,249.163,337.143z M239.438,342.45l-0.018,0.257l-0.171,0.191
			c-0.232,0.26-0.49,0.527-0.773,0.805c-0.355,0.345-0.765,0.594-1.22,0.742c-0.24,0.079-0.475,0.118-0.697,0.118
			c-0.233,0-0.457-0.043-0.663-0.129c-0.357-0.147-0.662-0.381-0.906-0.693c-0.211-0.269-0.387-0.587-0.521-0.946
			c-0.11-0.297-0.206-0.57-0.287-0.817c-0.073-0.227-0.146-0.467-0.213-0.723c-0.062-0.226-0.124-0.44-0.189-0.641
			c-0.124-0.384-0.29-0.774-0.492-1.163l-0.043-0.083l-0.021-0.092c-0.067-0.29-0.142-0.577-0.221-0.863
			c-0.079-0.283-0.164-0.565-0.257-0.848c-0.169-0.52-0.349-1.028-0.536-1.525c-0.197-0.52-0.384-1.049-0.561-1.591
			c-0.152-0.469-0.291-0.959-0.413-1.467c-0.125-0.52-0.215-1.045-0.266-1.559l-0.015-0.142l0.039-0.136
			c0.1-0.354,0.267-0.647,0.498-0.872c0.121-0.117,0.242-0.249,0.366-0.393l0.137-0.159l0.199-0.064
			c0.394-0.129,0.799-0.193,1.203-0.193c0.282,0,0.569,0.031,0.853,0.094c0.698,0.155,1.33,0.508,1.876,1.047
			c0.581,0.695,1.048,1.404,1.44,2.162c0.386,0.745,0.714,1.531,0.977,2.337c0.403,1.235,0.676,2.495,0.812,3.744
			C239.491,340.09,239.518,341.301,239.438,342.45z"/>
	</g>
</g>
<g id="Layer_4">
	<path fill="#5d091e" d="M19.147,185.978c0.065-0.2,0.198-0.365,0.399-0.496c0.201-0.13,0.402-0.242,0.601-0.334
		c0.166,0.033,0.332,0.06,0.499,0.08c0.167,0.021,0.348,0.035,0.542,0.043c0.529,0.024,1.06,0.022,1.59-0.005
		c0.531-0.027,1.076-0.028,1.632-0.003c0.641,0.029,1.236,0.131,1.786,0.308c0.55,0.177,1.023,0.502,1.421,0.976
		c0.221,0.061,0.497,0.124,0.828,0.189c0.332,0.066,0.651,0.105,0.957,0.119c0.307,0.014,0.58-0.018,0.82-0.096
		c0.241-0.078,0.437-0.24,0.587-0.487c-0.022-0.127-0.028-0.318-0.017-0.571c0.01-0.228,0.035-0.461,0.073-0.701
		c0.039-0.239,0.063-0.485,0.075-0.738c0.018-0.404-0.028-4.768-0.139-5.09c-0.111-0.322-0.473-0.497-1.085-0.524
		s-1.193,0.01-1.742,0.112c-0.548,0.103-1.042,0.372-1.479,0.809l-0.969,0.147l-5.503-0.436c-0.192-0.059-0.369-0.181-0.527-0.366
		c-0.159-0.184-0.263-0.354-0.312-0.508c0.135-1.769,0.246-1.469,0.333-3.101c0.087-1.632,0.17-3.346,0.25-5.143
		c0.068-0.25,0.141-0.494,0.221-0.732c0.081-0.237,0.276-0.399,0.587-0.487c1.062-0.028,2.121-0.019,3.179,0.028
		c1.114,0.05,2.142,0.134,3.085,0.252c0.387,0.093,0.611,0.224,0.673,0.391c0.062,0.168,0.125,0.342,0.186,0.522
		c0.062,0.181,0.188,0.345,0.375,0.492c0.189,0.148,0.59,0.236,1.202,0.263c1.42,0.063,2.818,0.139,4.195,0.226
		s2.761,0.161,4.153,0.224c0.808,0.036,1.594,0.065,2.36,0.086c0.767,0.021,1.541,0.025,2.322,0.009
		c0.116-0.096,0.205-0.213,0.267-0.35c0.062-0.136,0.117-0.28,0.166-0.43c0.048-0.15,0.125-0.286,0.228-0.408
		c0.104-0.122,0.254-0.217,0.452-0.284l0.542,0.024c0.529,0.023,1.073,0.029,1.631,0.016c0.559-0.013,1.116-0.007,1.673,0.018
		c0.307,0.014,0.64,0.042,1,0.083c0.361,0.042,0.7,0.114,1.016,0.217c0.316,0.103,0.581,0.261,0.794,0.473
		c0.214,0.213,0.312,0.496,0.297,0.85c-0.009,0.203-0.04,0.411-0.091,0.624c-0.051,0.213-0.082,0.421-0.09,0.624
		c-0.016,0.354,0.068,0.675,0.25,0.962c-0.119,1.415-0.196,2.819-0.23,4.212c-0.035,1.394-0.151,0.757-0.35,2.092
		c-0.29,0.241-0.596,0.386-0.919,0.435c-0.323,0.049-0.652,0.072-0.987,0.07c-0.334-0.001-0.675-0.017-1.023-0.045
		c-0.347-0.028-0.69,0.001-1.029,0.087c-0.387-0.068-0.797-0.112-1.229-0.131c-0.431-0.02-0.848-0.063-1.25-0.132
		c-0.401-0.068-0.772-0.193-1.113-0.373s-0.628-0.453-0.863-0.818c-0.438-0.172-0.908-0.269-1.41-0.292
		c-0.25-0.011-0.508-0.01-0.774,0.003c-0.266,0.014-0.552,0.026-0.859,0.038l-0.217,0.181l-0.109,7.38
		c0.13,0.209,0.305,0.363,0.523,0.461c0.219,0.099,0.452,0.172,0.701,0.222c0.249,0.049,0.492,0.079,0.728,0.089
		c0.237,0.011,0.438,0.02,0.605,0.027c0.251,0.011,0.456-0.043,0.614-0.163c0.159-0.119,0.312-0.258,0.458-0.417
		c0.147-0.158,0.3-0.303,0.459-0.436s0.365-0.218,0.618-0.258c0.248,0.062,0.498,0.098,0.748,0.109s0.487,0.022,0.71,0.032
		c0.557,0.025,1.101,0.037,1.63,0.035c0.53-0.001,1.074,0.01,1.63,0.035c0.278,0.012,0.55,0.024,0.814,0.037
		c0.265,0.012,0.521,0.049,0.769,0.11c0.295,0.267,0.484,0.567,0.566,0.9c0.083,0.334,0.116,0.69,0.099,1.07
		c-0.016,0.354-0.053-0.286-0.111,0.079c-0.058,0.365-0.095,0.725-0.111,1.079c-0.014,0.304,0.015,0.609,0.084,0.917
		c-0.013,0.279-0.053,0.568-0.123,0.87c-0.069,0.301-0.11-0.409-0.123-0.131c-0.019,0.431,0.063,0.789,0.245,1.076l-0.389,4.015
		c-0.151,0.272-0.326,0.442-0.525,0.509c-0.198,0.067-0.408,0.096-0.631,0.086c-0.222-0.01-0.465-0.04-0.728-0.089
		c-0.263-0.05-0.52-0.081-0.77-0.092c-0.306-0.014-0.613-0.001-0.922,0.035c-0.308,0.037-0.615,0.048-0.922,0.035
		c-0.334-0.015-0.682-0.03-1.044-0.046c-0.361-0.017-0.694-0.056-0.999-0.121c-0.304-0.064-0.578-0.165-0.823-0.303
		c-0.245-0.138-0.403-0.348-0.474-0.63c0.014-0.304-0.073-0.548-0.26-0.734c-0.638-0.079-1.27-0.152-1.894-0.218
		s-1.257-0.113-1.897-0.142c-0.584-0.026-1.17-0.033-1.756-0.021c-0.586,0.012-1.16,0.069-1.723,0.17
		c-1.083-0.125-2.125-0.209-3.127-0.254c-0.501-0.022-1.009-0.039-1.525-0.049c-0.515-0.01-1.051-0.028-1.608-0.053
		c-0.256,0.116-0.485,0.258-0.688,0.426c-0.203,0.168-0.398,0.343-0.588,0.525c-0.189,0.182-0.398,0.332-0.627,0.448
		c-0.228,0.117-0.509,0.167-0.843,0.152c-0.5-0.047-1.105-0.081-1.816-0.1c-0.71-0.019-1.392-0.062-2.044-0.129
		c-0.652-0.067-1.205-0.187-1.658-0.359c-0.452-0.172-0.684-0.449-0.695-0.83c0.037-0.201,0.059-0.39,0.067-0.567
		c0.008-0.177,0.017-0.367,0.025-0.569c0.041-0.911,0.054-1.824,0.039-2.737c-0.015-0.914-0.003-0.812,0.037-1.699
		c-0.015-0.28-0.009-0.558,0.017-0.836c0.027-0.277,0.06,0.445,0.1,0.168L19.147,185.978z"/>
	<path fill="#5d091e" d="M54.329,87.646c0.45,0.285,0.879,0.562,1.287,0.83c0.409,0.269,0.811,0.557,1.207,0.865
		c0.375,0.291,0.752,0.6,1.133,0.927c0.38,0.328,0.746,0.675,1.096,1.042c0.167,0.194,0.253,0.389,0.259,0.586
		c0.006,0.197-0.007,0.396-0.039,0.595c-0.031,0.2-0.046,0.39-0.043,0.567c0.003,0.179,0.092,0.336,0.268,0.473
		c0.088,0.068,0.173,0.118,0.255,0.149c1.417,0.491,2.814,1.077,4.189,1.76c1.375,0.682,2.781,1.212,4.217,1.588
		c0,0,0.97,0.163,1.137-0.045s-0.021-1.104-0.021-1.104c-0.201-0.604-0.534-1.119-0.998-1.544c-0.464-0.424-0.854-0.887-1.17-1.389
		c-0.459-0.772-0.972-1.531-1.54-2.277c-0.568-0.745-1.126-1.491-1.676-2.238c-0.22-0.171-0.424-0.249-0.612-0.234
		c-0.188,0.015-0.361,0.056-0.521,0.125s-0.329,0.129-0.511,0.181c-0.181,0.052-0.375,0.03-0.583-0.067
		c-0.267-0.11-0.518-0.241-0.754-0.393c-0.235-0.15-0.474-0.32-0.717-0.508c-0.374-0.291-0.748-0.604-1.121-0.942
		c-0.373-0.337-0.758-0.66-1.154-0.968c-0.154-0.119-0.308-0.239-0.462-0.358c-0.154-0.12-0.334-0.228-0.542-0.324
		c-0.305-0.333-0.444-0.689-0.415-1.068c0.029-0.378,0.148-0.758,0.357-1.142c0.209-0.383,0.471-0.765,0.785-1.147
		c0.314-0.381,0.587-0.723,0.82-1.023c0.513-0.66,1.054-1.29,1.625-1.89c0.57-0.599,1.16-1.176,1.767-1.731
		c0.197-0.071,0.388-0.091,0.575-0.059s0.365,0.099,0.534,0.198c0.17,0.1,0.337,0.213,0.502,0.342
		c0.165,0.128,0.333,0.242,0.502,0.341c0.095,0.106,0.193,0.206,0.295,0.301c0.103,0.096,0.208,0.186,0.319,0.271
		c0.352,0.273,0.724,0.522,1.115,0.745c0.391,0.224,0.752,0.463,1.082,0.719s0.6,0.546,0.808,0.868
		c0.208,0.323,0.314,0.709,0.317,1.16c-0.217,0.281-0.317,0.604-0.301,0.968c0.016,0.366,0.163,0.688,0.44,0.967
		c2.105,2.788,4.152,5.514,6.14,8.179c1.988,2.666,3.939,5.333,5.853,8.004c0.479,0.564,0.8,1.174,0.962,1.829
		c0.162,0.654-0.068,1.383-0.688,2.183c-0.171,0.221-0.355,0.446-0.553,0.678c-0.197,0.231-0.389,0.468-0.575,0.708
		c-0.249,0.321-0.479,0.687-0.693,1.098c-0.275,0.172-0.555,0.363-0.842,0.574c-0.287,0.21-0.589,0.384-0.908,0.522
		c-0.319,0.138-0.648,0.211-0.99,0.218c-0.341,0.008-0.703-0.104-1.086-0.338c-1.858-0.833-3.744-1.55-5.657-2.153
		c-1.914-0.602-3.791-1.33-5.634-2.183c-1.471-0.468-2.938-0.997-4.402-1.588c-1.464-0.59-2.95-1.118-4.459-1.583
		c-0.196,0.072-0.405,0.159-0.625,0.26c-0.22,0.103-0.438,0.189-0.653,0.263c-0.216,0.073-0.438,0.11-0.667,0.108
		c-0.229,0-0.453-0.087-0.673-0.258c-0.11-0.085-0.206-0.167-0.286-0.246c-0.08-0.078-0.175-0.16-0.286-0.246
		c-0.374-0.29-0.762-0.575-1.163-0.854c-0.4-0.278-0.788-0.563-1.163-0.854c-0.352-0.273-0.678-0.558-0.977-0.854
		c-0.299-0.296-0.564-0.613-0.795-0.953l-0.057-0.813c0.493-0.772,1.008-1.526,1.545-2.264c0.537-0.737,1.077-1.457,1.621-2.157
		c0.559-0.721,1.12-1.432,1.682-2.134c0.562-0.701,0.269-0.271,0.834-0.955c0.2-0.166,0.49-0.374,0.813-0.381
		C53.982,87.565,54.09,87.589,54.329,87.646z"/>
	<path fill="#5d091e" d="M176.932,20.86l3.545,0.019c0.406,0.16,0.698,0.392,0.879,0.695c0.18,0.304,0.3,0.65,0.361,1.039
		c0.061,0.39,0.088,0.8,0.083,1.232c-0.006,0.433,0.021,0.843,0.083,1.232c-0.021,0.363-0.027,0.739-0.02,1.129
		c0.007,0.391-0.013,0.767-0.06,1.13c-0.047,0.364-0.135,0.707-0.263,1.029c-0.129,0.323-0.338,0.612-0.629,0.868
		c-0.041,0.726-0.068,1.458-0.081,2.196c-0.014,0.739-0.014,1.484,0,2.237c0.024,1.337,0.068,2.674,0.133,4.011
		c0.064,1.336,0.122,2.673,0.173,4.01c0.084,0.222,0.155,0.464,0.214,0.728c0.058,0.264,0.15,0.514,0.275,0.748
		c0.125,0.235,0.29,0.434,0.494,0.597c0.205,0.164,1.534,0.48,1.883,0.474c0.645-0.012,2.036-0.53,2.281-1.078
		c0.245-0.548,0.395-1.205,0.448-1.973c0.053-0.767,0.066-1.554,0.038-2.362c-0.029-0.808,0.02-1.478,0.145-2.01
		c-0.062-0.472-0.098-0.953-0.106-1.44c-0.009-0.487-0.018-0.968-0.026-1.442c-0.011-0.612,0.005-1.212,0.048-1.798
		c0.043-0.586,0.06-1.157,0.049-1.715c-0.006-0.334-0.079-0.632-0.217-0.895c-0.14-0.262-0.299-0.524-0.478-0.786
		c-0.18-0.261-0.339-0.523-0.478-0.786c-0.14-0.262-0.211-0.546-0.217-0.853c-0.006-0.334-0.019-0.675-0.039-1.024
		c-0.02-0.348-0.033-0.716-0.04-1.107c-0.008-0.418-0.016-0.878-0.025-1.379c-0.009-0.501,0.043-0.962,0.156-1.382
		s0.294-0.779,0.544-1.076c0.25-0.297,0.643-0.451,1.18-0.46c0.161-0.003,0.329,0.001,0.504,0.012
		c0.174,0.011,0.342,0.015,0.504,0.012c0.134-0.002,0.254-0.004,0.362-0.006c0.106-0.002,0.228-0.032,0.36-0.09
		c0.244,0.079,2.493,0.131,2.749,0.154c0.256,0.023,0.518,0.032,0.787,0.027c0.375-0.007,0.758-0.035,1.146-0.083
		s0.77-0.077,1.146-0.083c0.697-0.013,1.264,0.117,1.699,0.388c0.434,0.271,0.658,0.782,0.672,1.535
		c0.016,0.892,0.025,1.783,0.029,2.675c0.002,0.893-0.057,1.757-0.176,2.595c-0.049,0.252-0.166,0.449-0.352,0.592
		c-0.186,0.143-0.377,0.272-0.576,0.387c-0.201,0.115-0.379,0.23-0.539,0.344c-0.158,0.114-0.236,0.297-0.23,0.547
		c0.002,0.167,0.045,0.348,0.129,0.542c-0.041,2.174-0.027,4.348,0.039,6.521c0.064,2.173,0.051,4.319-0.045,6.439
		c-0.119,0.867-0.332,1.72-0.639,2.562s-0.703,1.637-1.186,2.383c-0.484,0.748-1.062,1.399-1.738,1.955
		c-0.674,0.556-2.223,1.121-3.159,1.453c-0.65,0.23-2.191,0.56-2.812,0.688c-0.618,0.128-1.458,0.236-2.21,0.25
		c-1.155,0.021-2.272-0.133-3.352-0.462c-1.081-0.33-2.069-0.799-2.966-1.41s-1.684-1.355-2.357-2.236
		c-0.674-0.879-1.182-1.86-1.524-2.94c-0.317-1.192-0.521-2.408-0.61-3.647c-0.09-1.238-0.146-2.499-0.169-3.78
		c-0.011-0.612-0.016-1.219-0.013-1.818c0.002-0.599-0.001-1.205-0.013-1.818c-0.009-0.501-0.038-0.996-0.087-1.482
		c-0.049-0.486-0.078-0.981-0.087-1.483c-0.003-0.194,0.006-0.39,0.03-0.585c0.022-0.195,0.033-0.391,0.029-0.586
		c-0.004-0.251-0.063-0.486-0.174-0.708c-0.112-0.221-0.316-0.384-0.613-0.491c-0.459-0.131-0.739-0.39-0.84-0.779
		c-0.102-0.388-0.155-0.792-0.163-1.209l-0.007-0.376l-0.006-0.334l-0.032-4.013c0.338-0.563,0.762-0.926,1.27-1.089
		c0.507-0.162,1.056-0.249,1.647-0.26c0.295-0.005,0.59,0.003,0.887,0.025c0.295,0.023,0.591,0.031,0.887,0.026
		c0.429-0.008,0.831-0.078,1.205-0.21c0.374-0.132,0.722-0.201,1.044-0.207C178.094,20.582,176.499,20.673,176.932,20.86z"/>
	<path fill="#5d091e" d="M215.541,25.23c0.292,0.649,0.523,1.315,0.694,1.999c0.169,0.684,0.326,1.371,0.469,2.063
		c0.143,0.693,0.305,1.381,0.487,2.067c0.183,0.686,0.433,1.355,0.75,2.009c0.251,0.869,0.473,1.731,0.662,2.587
		c0.189,0.857,0.658,1.287,1.025,2.091c0.209-0.018,1.04,0.233,1.125-0.021c0.086-0.253,0.185-0.827,0.25-1.042
		c-0.039-0.347,0.287-0.839,0.373-1.306c0.041-0.219,0.088-0.444,0.145-0.675c0.055-0.23,0.104-0.455,0.144-0.675
		c0.096-0.52,0.1-0.994,0.012-1.421c-0.089-0.427-0.425-0.737-1.007-0.93l-0.222-0.891l1.092-5.707
		c0.165-0.337,0.365-0.584,0.601-0.739c0.234-0.155,0.49-0.25,0.768-0.283c0.276-0.034,0.558-0.024,0.845,0.028
		c0.286,0.053,0.566,0.104,0.841,0.155c0.871,0.161,1.743,0.358,2.615,0.589c0.871,0.232,1.743,0.428,2.615,0.589
		c0.389,0.129,0.663,0.313,0.825,0.556c0.161,0.242,0.264,0.523,0.308,0.843c0.044,0.32,0.04,0.652-0.01,0.997
		c-0.052,0.345-0.109,0.696-0.175,1.051c-0.076,0.411-0.159,0.821-0.247,1.23c-0.089,0.409-0.173,0.833-0.254,1.271
		c-0.03,0.165-0.061,0.329-0.091,0.494c-0.03,0.164-0.049,0.331-0.054,0.5c-0.086,0.324-0.23,0.546-0.432,0.664
		c-0.203,0.119-0.418,0.199-0.645,0.243c-0.227,0.043-0.449,0.094-0.665,0.153c-0.218,0.059-0.386,0.205-0.507,0.438
		c-0.697,3.499-1.357,6.969-1.98,10.41c-0.623,3.442-1.275,6.871-1.957,10.287c0.014,0.06,0.012,0.145-0.009,0.253
		c-0.086,0.466-0.363,0.747-0.832,0.845c-0.469,0.098-0.981,0.116-1.537,0.056s-1.091-0.159-1.606-0.296
		c-0.516-0.138-0.849-0.221-0.998-0.248l-0.448-0.083l-1.271-0.235c-0.498-0.092-0.492-0.009-0.9-0.24
		c-0.408-0.231-0.669-0.668-0.781-1.313c-0.231-1.261-0.582-2.502-1.052-3.722s-0.818-2.475-1.044-3.764
		c-0.585-1.298-1.031-2.613-1.339-3.945s-0.699-2.665-1.174-4c-0.205-0.009-0.786-0.149-0.826,0.07
		c-0.025,0.137-0.036,0.263-0.031,0.377s-0.006,0.24-0.03,0.376c-0.081,0.439-0.203,0.855-0.366,1.25
		c-0.164,0.395-0.288,0.825-0.374,1.291c-0.086,0.466-0.16,0.934-0.221,1.404c-0.062,0.471-0.125,0.955-0.191,1.453
		c0.029,0.26,0.121,0.462,0.275,0.604c0.153,0.142,0.323,0.272,0.508,0.391c0.184,0.119,0.345,0.255,0.484,0.408
		c0.139,0.153,0.205,0.385,0.2,0.696c-0.047,0.389-0.1,0.783-0.16,1.182c-0.062,0.399-0.127,0.792-0.198,1.175
		c-0.051,0.274-0.11,0.632-0.179,1.072c-0.068,0.441-0.176,0.881-0.321,1.322c-0.146,0.441-0.333,0.825-0.561,1.151
		s-0.526,0.512-0.895,0.557c-0.145-0.055-0.292-0.096-0.441-0.124c-0.149-0.027-0.299-0.055-0.448-0.083
		c-0.573-0.105-1.148-0.163-1.727-0.17c-0.578-0.008-1.162-0.023-1.75-0.047c-0.363-0.124-0.758-0.218-1.184-0.283
		c-0.427-0.064-0.843-0.148-1.248-0.251c-0.406-0.104-0.771-0.263-1.091-0.478c-0.321-0.215-0.571-0.538-0.749-0.967
		c0.03-0.306,0.067-0.611,0.111-0.915c0.043-0.304,0.093-0.606,0.148-0.908c0.116-0.63,0.245-1.258,0.387-1.884
		c0.141-0.625,0.27-1.253,0.386-1.884l0.106-0.576c0.136-0.315,0.309-0.517,0.518-0.605c0.21-0.089,0.437-0.167,0.682-0.236
		c0.244-0.067,0.472-0.146,0.681-0.235c0.21-0.089,0.383-0.291,0.518-0.605c-0.029-0.261-0.016-0.541,0.04-0.843
		c0.046-0.247,0.111-0.496,0.196-0.75c0.086-0.253,0.153-0.517,0.204-0.791c0.046-0.247,0.053-0.493,0.021-0.74
		c-0.031-0.246-0.024-0.493,0.021-0.74c0.207-1.124,0.44-2.214,0.7-3.271c0.26-1.057,0.491-2.133,0.693-3.23
		c0.162-0.876,0.289-1.774,0.382-2.692c-0.1-0.16-0.231-0.283-0.396-0.371c-0.165-0.087-0.329-0.173-0.493-0.261
		c-0.164-0.087-0.305-0.198-0.421-0.333c-0.117-0.135-0.19-0.333-0.22-0.593c0.041-0.36,0.091-0.734,0.149-1.12
		c0.058-0.386,0.123-0.77,0.193-1.154c0.278-1.507,0.606-2.864,0.983-4.069c0.211-0.301,0.465-0.424,0.764-0.369
		c0.3,0.055,0.591,0.081,0.875,0.076c0.194,0.064,0.385,0.114,0.571,0.148c0.188,0.034,0.38,0.07,0.58,0.107
		c1.046,0.193,2.101,0.339,3.165,0.436c1.063,0.097,2.119,0.242,3.165,0.436c0.647,0.12,0.634,0.141,1.069,0.434
		C215.641,23.293,215.324,24.453,215.541,25.23z"/>
	<path fill="#5d091e" d="M250.925,34.113c-0.139,0.603-0.287,1.193-0.443,1.774c-0.158,0.581-0.342,1.159-0.551,1.734
		c-0.134,0.367-0.285,0.727-0.454,1.08c-0.17,0.354-0.345,0.705-0.525,1.054c-0.272,0.228-0.557,0.398-0.854,0.512
		c-0.298,0.114-0.583,0.232-0.857,0.355c-0.273,0.123-0.522,0.27-0.746,0.44c-0.224,0.171-0.398,0.426-0.521,0.767
		c-0.058,0.157-0.089,0.279-0.094,0.366c-0.19,0.228-0.346,0.468-0.464,0.721c-0.12,0.253-0.227,0.511-0.322,0.772
		c-0.134,0.367-0.252,0.747-0.354,1.139c-0.103,0.393-0.225,0.786-0.368,1.178c-0.172,0.471-0.377,0.886-0.614,1.244
		c-0.201,0.699-0.417,1.421-0.647,2.167c-0.231,0.747-0.477,1.473-0.733,2.18l-0.372,1.021c-0.124,0.341-0.134,0.626-0.029,0.857
		c0.104,0.231,0.24,0.451,0.407,0.66c0.166,0.209,0.33,0.425,0.492,0.646c0.162,0.223,0.226,0.491,0.192,0.804
		c-0.053,0.219-0.104,0.415-0.153,0.589c-0.051,0.175-0.109,0.354-0.176,0.537c-0.181,0.498-0.382,0.973-0.601,1.427
		c-0.22,0.454-0.42,0.93-0.601,1.427c-0.058,0.157-0.111,0.323-0.161,0.497c-0.05,0.175-0.092,0.345-0.125,0.511
		c-0.329,0.533-0.671,0.897-1.025,1.095c-0.354,0.197-0.925,0.152-1.711-0.134c-0.428-0.156-0.846-0.324-1.253-0.501
		c-0.407-0.178-0.813-0.341-1.218-0.488c-0.238-0.087-0.47-0.171-0.696-0.254s-0.468-0.141-0.725-0.175l-0.321-0.117
		c-0.167-0.061-0.336-0.115-0.507-0.162c-0.172-0.048-0.353-0.106-0.543-0.176s-0.37-0.15-0.539-0.241
		c-0.169-0.091-0.318-0.22-0.446-0.385c-0.396-0.026-0.819-0.121-1.271-0.285l-1-0.364c-0.119-0.043-0.25-0.091-0.393-0.143
		c-0.143-0.052-0.29-0.091-0.442-0.117c-0.233-0.174-0.441-0.361-0.625-0.561s-0.315-0.449-0.396-0.745
		c0.1-0.498,0.226-0.993,0.379-1.486c0.152-0.493,0.319-0.988,0.501-1.486c0.181-0.497,0.369-0.978,0.564-1.44
		c0.195-0.462,0.42-0.929,0.672-1.401c0.167-0.384,0.375-0.604,0.626-0.662c0.249-0.057,0.515-0.102,0.796-0.132
		c0.281-0.031,0.56-0.13,0.836-0.296c0.276-0.167,0.524-0.55,0.743-1.153c0.144-0.393,0.263-0.794,0.358-1.204
		c0.095-0.41,0.215-0.812,0.357-1.205c0.544-1.492,1.117-3.011,1.72-4.556c0.604-1.544,1.188-3.059,1.756-4.543
		c0.005-0.235-0.059-0.414-0.188-0.536c-0.132-0.122-0.287-0.23-0.468-0.326c-0.182-0.096-0.337-0.204-0.468-0.326
		c-0.132-0.122-0.189-0.313-0.175-0.575c0.139-0.602,0.293-1.212,0.465-1.833c0.172-0.62,0.372-1.244,0.602-1.872
		c0.104-0.288,0.214-0.589,0.329-0.903c0.114-0.314,0.241-0.608,0.382-0.884c0.141-0.275,0.315-0.515,0.525-0.721
		c0.21-0.205,0.479-0.352,0.808-0.44c0.199,0.043,0.383,0.095,0.55,0.156c0.166,0.061,0.345,0.125,0.535,0.195
		c0.405,0.147,0.805,0.309,1.2,0.481c0.395,0.174,0.795,0.334,1.199,0.481c0.381,0.139,0.766,0.25,1.153,0.331
		c0.389,0.083,0.785,0.123,1.189,0.122c0.319,0.235,0.704,0.434,1.157,0.599c0.404,0.147,0.811,0.273,1.217,0.376
		c0.407,0.104,0.802,0.225,1.183,0.364c0.523,0.191,0.991,0.443,1.403,0.756C250.456,33.016,250.75,33.486,250.925,34.113z"/>
	<path fill="#5d091e" d="M267.299,42.158c-0.214,0.487-0.423,0.953-0.628,1.397c-0.204,0.444-0.429,0.885-0.674,1.323
		c-0.231,0.414-0.48,0.833-0.746,1.259c-0.268,0.425-0.556,0.839-0.867,1.24c-0.167,0.194-0.347,0.309-0.54,0.344
		c-0.194,0.036-0.393,0.052-0.595,0.051c-0.203-0.001-0.392,0.013-0.567,0.042c-0.177,0.029-0.318,0.142-0.427,0.336
		c-0.055,0.098-0.092,0.188-0.11,0.274c-0.272,1.475-0.644,2.944-1.111,4.406c-0.469,1.462-0.782,2.931-0.938,4.407
		c0,0-0.173,1.079,0.41,1.329s1.248-0.427,1.248-0.427c0.567-0.289,1.011-0.779,1.36-1.302c0.351-0.523,0.749-0.978,1.198-1.366
		c0.695-0.569,1.368-1.19,2.021-1.864c0.651-0.673,1.306-1.337,1.962-1.993c0.136-0.243,0.183-0.456,0.14-0.64
		c-0.043-0.183-0.109-0.349-0.201-0.496c-0.093-0.147-0.178-0.306-0.256-0.478c-0.078-0.171-0.086-0.366-0.021-0.586
		c0.069-0.28,0.16-0.548,0.274-0.804c0.113-0.255,0.245-0.517,0.396-0.785c0.23-0.414,0.485-0.83,0.763-1.25
		c0.278-0.419,0.539-0.848,0.784-1.286c0.095-0.17,0.189-0.34,0.285-0.511c0.095-0.17,0.175-0.365,0.239-0.584
		c0.283-0.352,0.614-0.542,0.993-0.57c0.378-0.028,0.772,0.033,1.183,0.182c0.409,0.15,0.827,0.351,1.252,0.604
		c0.424,0.253,0.803,0.472,1.134,0.658c0.73,0.408,1.434,0.849,2.112,1.323c0.678,0.474,1.336,0.97,1.977,1.487
		c0.1,0.184,0.148,0.37,0.145,0.56c-0.004,0.189-0.043,0.375-0.116,0.558c-0.073,0.183-0.16,0.365-0.262,0.548
		c-0.103,0.182-0.19,0.365-0.263,0.547c-0.091,0.11-0.175,0.222-0.254,0.337s-0.152,0.234-0.22,0.355
		c-0.218,0.39-0.408,0.794-0.569,1.214c-0.163,0.42-0.346,0.812-0.55,1.177c-0.203,0.365-0.449,0.675-0.736,0.929
		c-0.287,0.254-0.654,0.417-1.099,0.487c-0.311-0.173-0.645-0.224-1.003-0.153c-0.359,0.071-0.656,0.265-0.89,0.581
		c-2.441,2.499-4.83,4.931-7.167,7.296s-4.683,4.694-7.036,6.986c-0.486,0.559-1.041,0.967-1.663,1.226
		c-0.623,0.258-1.378,0.14-2.262-0.354c-0.244-0.136-0.494-0.284-0.753-0.444c-0.259-0.161-0.521-0.315-0.786-0.463
		c-0.354-0.198-0.75-0.371-1.189-0.521c-0.211-0.246-0.441-0.495-0.693-0.747c-0.25-0.252-0.468-0.525-0.651-0.819
		c-0.185-0.294-0.307-0.609-0.364-0.946c-0.06-0.336-0.002-0.711,0.171-1.125c0.545-1.962,0.972-3.934,1.281-5.916
		c0.309-1.982,0.746-3.947,1.313-5.897c0.242-1.524,0.545-3.054,0.91-4.591c0.364-1.536,0.663-3.084,0.897-4.646
		c-0.101-0.184-0.218-0.377-0.351-0.579c-0.135-0.202-0.253-0.405-0.358-0.607c-0.104-0.202-0.174-0.416-0.207-0.642
		s0.019-0.46,0.154-0.704c0.067-0.122,0.134-0.228,0.2-0.319c0.064-0.091,0.132-0.197,0.2-0.319c0.23-0.414,0.454-0.839,0.67-1.278
		c0.215-0.438,0.438-0.863,0.67-1.277c0.217-0.389,0.45-0.754,0.698-1.094c0.248-0.34,0.522-0.649,0.823-0.929l0.796-0.178
		c0.837,0.372,1.66,0.768,2.471,1.188c0.81,0.42,1.601,0.847,2.375,1.279c0.797,0.444,1.584,0.893,2.362,1.343
		c0.777,0.451,0.07,0.179,0.832,0.636c0.193,0.172,0.317,0.417,0.372,0.735S267.32,41.914,267.299,42.158z"/>
	<path fill="#5d091e" d="M302.256,65.679l0.524,0.44c0.368,0.309,0.56,0.643,0.574,1c0.014,0.358-0.075,0.72-0.267,1.086
		c-0.192,0.367-0.44,0.722-0.746,1.066c-0.306,0.344-0.583,0.666-0.834,0.964c-0.573,0.684-1.147,1.338-1.723,1.964
		c-0.576,0.627-1.142,1.271-1.696,1.933c-0.452,0.458-0.862,0.623-1.233,0.494s-0.741-0.349-1.109-0.659l-0.669-0.562
		c-0.117-0.098-0.233-0.186-0.349-0.265c-0.116-0.079-0.231-0.148-0.346-0.208c-0.177-0.184-0.366-0.362-0.57-0.533
		c-0.203-0.171-0.403-0.347-0.598-0.529s-0.228-0.277-0.32-0.501c-0.094-0.224-0.091-0.494,0.01-0.81
		c0.064-0.274,0.194-0.527,0.392-0.763c0.197-0.234,0.34-0.561,0.236-0.83l-3.687-2.901c-0.241,0.052-0.555,0.226-0.746,0.375
		c-0.191,0.149-0.376,0.331-0.555,0.543c-0.574,0.684-1.154,1.574-1.178,1.917c-0.023,0.344,0.895,1.199,1.303,1.541
		c0.174,0.146,0.367,0.291,0.579,0.432s0.415,0.293,0.609,0.457c0.407,0.342,0.608,0.674,0.603,0.997
		c-0.007,0.322,0.048,0.506-0.105,0.886c-0.109,0.09-0.106,0.033-0.285,0.246c-0.251,0.299-0.501,0.626-0.749,0.981
		c-0.249,0.355-0.499,0.683-0.749,0.981c-0.305,0.363-0.354,0.38-0.699,0.635c-0.347,0.255-0.589,0.221-1.02,0.223
		c-0.591-0.241-1.087-0.576-1.488-1.004c-0.402-0.428-1.602-1.254-2.173-1.479l-0.785,0.589c-0.071,0.123-0.142,0.236-0.212,0.341
		c-0.071,0.104-0.151,0.21-0.241,0.316c-0.144,0.171-0.301,0.339-0.472,0.504c-0.173,0.165-0.33,0.333-0.473,0.504
		c-0.144,0.171-0.268,0.357-0.372,0.561s-0.162,0.409-0.173,0.619l1.003,0.945c0.252,0.211,0.49,0.42,0.714,0.626
		c0.224,0.207,0.442,0.398,0.656,0.578c0.213,0.179,0.421,0.335,0.623,0.469c0.202,0.133,0.494,0.336,0.76,0.413
		c0.166-0.079,0.477-0.275,0.64-0.43c0.163-0.154,0.336-0.292,0.519-0.411c0.183-0.12,0.372-0.207,0.566-0.261
		c0.195-0.055,0.416-0.033,0.664,0.066c0.348,0.255,0.638,0.414,0.986,0.669c0.347,0.256,0.686,0.521,1.017,0.799
		c0.271,0.228,0.543,0.456,0.814,0.684c0.271,0.228,0.479,0.483,0.621,0.767c0.143,0.283,0.197,0.593,0.164,0.928
		c-0.034,0.336-0.222,0.707-0.562,1.112c-0.466,0.555-0.931,1.128-1.395,1.721c-0.465,0.592-0.93,1.167-1.396,1.722
		c-0.412,0.491-0.83,0.959-1.253,1.404c-0.423,0.445-0.854,0.849-1.289,1.21l-0.902-0.048c-0.079-0.103-0.172-0.199-0.278-0.289
		c-0.106-0.09-0.209-0.175-0.306-0.256c-0.523-0.44-1.079-0.833-1.665-1.179c-0.585-0.347-1.131-0.731-1.636-1.154
		c-0.446-0.375-0.848-0.821-1.206-1.34l-3.052-2.452c-0.313-0.336-0.636-0.652-0.967-0.947c-0.33-0.296-0.67-0.59-1.02-0.883
		c-0.621-0.521-1.265-1.034-1.933-1.54c-0.667-0.505-1.32-1.027-1.961-1.564c-0.563-0.473-1.108-0.985-1.637-1.538l-0.047-1.185
		c0.339-0.443,0.678-0.877,1.018-1.301c0.34-0.425,0.688-0.85,1.047-1.277c0.358-0.426,0.722-0.84,1.091-1.24
		c0.368-0.4,0.752-0.778,1.151-1.135c0.202-0.084,0.38-0.099,0.532-0.044c0.152,0.055,0.305,0.119,0.458,0.193
		c0.153,0.074,0.305,0.119,0.456,0.137c0.15,0.018,0.326-0.034,0.528-0.157l8.384-9.989c0.073-0.048,0.154-0.125,0.244-0.232
		c0.179-0.213,0.232-0.405,0.16-0.575c-0.072-0.17-0.169-0.351-0.289-0.543c-0.12-0.191-0.222-0.386-0.304-0.583
		c-0.083-0.196-0.036-0.42,0.142-0.672c0.358-0.427,0.702-0.856,1.032-1.289s0.674-0.862,1.032-1.289
		c0.251-0.299,0.529-0.621,0.835-0.964c0.305-0.344,0.626-0.628,0.965-0.854c0.338-0.225,0.685-0.353,1.04-0.382
		c0.354-0.03,0.727,0.119,1.115,0.444c0.155,0.13,0.301,0.262,0.438,0.395s0.282,0.264,0.438,0.395
		c0.136,0.114,0.28,0.217,0.435,0.31c0.153,0.093,0.315,0.156,0.486,0.189c1.05,0.955,2.109,1.899,3.179,2.832
		c1.068,0.934,2.156,1.864,3.263,2.792c0.95,0.798,1.896,1.583,2.837,2.354C300.362,64.153,301.307,64.918,302.256,65.679z"/>
	<path fill="#5d091e" d="M336.581,113.272c0.001,0.061,0.02,0.126,0.058,0.197c0.101,0.19,0.3,0.297,0.597,0.322
		c0.297,0.025,0.533,0.143,0.708,0.354c0.177,0.332,0.411,0.701,0.706,1.107c0.294,0.406,0.555,0.823,0.781,1.25
		c0.265,0.498,0.395,0.938,0.393,1.319c-0.003,0.381-0.105,0.724-0.306,1.028c-0.202,0.305-0.487,0.585-0.855,0.841
		s-0.787,0.509-1.254,0.757c-0.518,0.274-1.038,0.528-1.561,0.76c-0.524,0.232-1.044,0.485-1.562,0.76
		c-0.123,0.065-0.243,0.136-0.359,0.213c-0.117,0.077-0.237,0.149-0.36,0.214c-0.629,0.182-1.115,0.143-1.457-0.116
		c-0.343-0.259-0.634-0.614-0.872-1.065c-0.164-0.309-0.312-0.617-0.444-0.927c-0.134-0.31-0.281-0.619-0.445-0.927
		c-0.176-0.333-0.376-0.621-0.602-0.867c-0.029-0.471,0.065-0.917,0.285-1.336c0.218-0.42,0.636-0.789,0.86-1.197
		c0.226-0.409,0.395-0.818,0.509-1.228c0.113-0.41,0.051-0.84-0.188-1.291c-0.176-0.332-0.587-0.62-0.842-0.773
		c-0.255-0.154-0.858-0.176-1.399,0.111c-0.518,0.274-0.805,0.655-0.862,1.141c-0.112,1.214-0.216,2.417-0.31,3.607
		c-0.095,1.19,0.044,2.462,0.006,3.638c-0.264,0.991-0.552,1.904-0.865,2.739c-0.314,0.835-0.706,1.613-1.176,2.333
		c-0.47,0.72-1.048,1.384-1.734,1.992c-0.688,0.607-1.523,1.173-2.508,1.695c-0.96,0.51-2.005,0.859-3.135,1.048
		c-1.13,0.189-2.237,0.184-3.321-0.016s-2.09-0.594-3.017-1.181c-0.927-0.588-1.667-1.403-2.221-2.447
		c-0.239-0.451-0.423-0.946-0.552-1.486c-0.236-0.148-0.424-0.353-0.562-0.613c-0.126-0.238-0.203-0.501-0.23-0.79
		c-0.027-0.29-0.046-0.577-0.054-0.86c-0.01-0.285-0.021-0.559-0.036-0.825c-0.015-0.265-0.078-0.505-0.191-0.719
		c-0.202-0.379-0.6-0.625-1.194-0.734c-0.513-0.61-0.945-1.247-1.298-1.911c-0.391-0.735-0.676-1.511-0.856-2.327
		c0.156-0.478,0.392-0.869,0.704-1.171c0.312-0.302,0.678-0.564,1.097-0.787c0.418-0.222,0.846-0.412,1.284-0.567
		c0.438-0.157,0.865-0.345,1.284-0.567c0.147-0.079,0.292-0.163,0.434-0.253c0.141-0.091,0.267-0.18,0.378-0.269
		c0.135-0.042,0.338-0.134,0.609-0.278c0.196-0.104,0.378-0.208,0.544-0.312c0.166-0.104,0.348-0.207,0.545-0.312
		c0.271-0.144,0.548-0.261,0.832-0.35c0.283-0.09,0.563-0.125,0.843-0.105c0.277,0.019,0.554,0.124,0.828,0.312
		c0.273,0.189,0.524,0.498,0.751,0.924c0.163,0.308,0.293,0.627,0.389,0.957c0.096,0.329,0.231,0.659,0.408,0.992
		c0.062,0.118,0.125,0.222,0.188,0.311c0.062,0.088,0.138,0.185,0.226,0.291c0.178,0.574-0.174,0.987-0.423,1.438
		c-0.25,0.452-0.524,0.901-0.823,1.349c-0.299,0.447-0.532,0.913-0.701,1.398c-0.169,0.484-0.077,1.059,0.275,1.723
		c0.177,0.332,0.767,0.637,1.139,0.713s1.004,0.067,1.349-0.116c0.394-0.209,0.688-0.517,0.882-0.924
		c0.194-0.407,0.313-0.851,0.359-1.331c0.045-0.48,0.046-0.952,0.006-1.417c-0.042-0.464-0.089-0.865-0.142-1.202
		c-0.048-1.16-0.239-2.341-0.027-3.458c0.213-1.116,0.574-2.174,1.084-3.174c0.511-1,1.161-1.915,1.951-2.745
		s1.738-1.539,2.847-2.126c1.033-0.549,2.108-0.944,3.227-1.188c1.116-0.244,2.214-0.286,3.291-0.128
		c1.078,0.158,2.083,0.552,3.017,1.181c0.933,0.629,1.722,1.549,2.363,2.759c0.377,0.712,0.635,1.464,0.771,2.258
		C336.78,111.685,336.758,112.478,336.581,113.272z"/>
	<path fill="#5d091e" d="M347.659,140.223c-0.551,0.282-1.1,0.549-1.646,0.801c-0.547,0.251-1.108,0.48-1.686,0.686
		c-0.368,0.131-0.742,0.242-1.123,0.334c-0.382,0.093-0.766,0.179-1.15,0.258c-0.354-0.076-0.671-0.201-0.954-0.373
		c-0.283-0.173-0.562-0.333-0.836-0.48c-0.273-0.147-0.55-0.257-0.827-0.331c-0.278-0.074-0.588-0.05-0.929,0.071
		c-0.157,0.056-0.271,0.111-0.341,0.165c-0.299-0.009-0.585,0.021-0.855,0.088c-0.272,0.068-0.539,0.148-0.802,0.242
		c-0.368,0.131-0.735,0.283-1.102,0.457c-0.368,0.174-0.748,0.331-1.142,0.471c-0.473,0.168-0.925,0.271-1.354,0.309
		c-0.665,0.294-1.358,0.591-2.079,0.89c-0.722,0.3-1.437,0.576-2.146,0.828l-1.024,0.364c-0.342,0.121-0.565,0.301-0.673,0.541
		c-0.107,0.239-0.186,0.498-0.234,0.774c-0.05,0.277-0.106,0.556-0.169,0.837s-0.225,0.511-0.486,0.69
		c-0.201,0.1-0.385,0.187-0.551,0.261c-0.166,0.073-0.341,0.143-0.524,0.208c-0.499,0.177-0.994,0.324-1.484,0.441
		c-0.491,0.117-0.986,0.264-1.484,0.441c-0.158,0.056-0.32,0.121-0.486,0.194c-0.166,0.073-0.323,0.151-0.472,0.232
		c-0.623,0.077-1.127,0.034-1.511-0.132s-0.726-0.669-1.025-1.513c-0.164-0.459-0.312-0.918-0.444-1.374
		c-0.133-0.457-0.276-0.901-0.431-1.335c-0.091-0.256-0.179-0.505-0.266-0.747c-0.086-0.243-0.2-0.483-0.344-0.719l-0.123-0.345
		c-0.063-0.179-0.134-0.356-0.21-0.529c-0.077-0.174-0.151-0.364-0.225-0.568c-0.072-0.205-0.129-0.407-0.172-0.607
		c-0.041-0.201-0.041-0.41,0-0.626c-0.241-0.346-0.448-0.762-0.621-1.247l-0.381-1.072c-0.046-0.128-0.096-0.269-0.15-0.422
		c-0.054-0.153-0.121-0.302-0.202-0.445c-0.021-0.31-0.016-0.606,0.016-0.891c0.032-0.285,0.135-0.559,0.308-0.821
		c0.445-0.245,0.905-0.466,1.383-0.664c0.477-0.198,0.964-0.386,1.463-0.563s0.989-0.337,1.472-0.479
		c0.481-0.143,0.985-0.264,1.512-0.365c0.402-0.115,0.708-0.086,0.917,0.084c0.208,0.17,0.417,0.362,0.626,0.576
		s0.468,0.38,0.776,0.501c0.31,0.12,0.766,0.073,1.37-0.142c0.394-0.14,0.778-0.306,1.154-0.497c0.375-0.192,0.76-0.357,1.154-0.497
		c1.496-0.532,3.032-1.056,4.608-1.574c1.575-0.517,3.116-1.029,4.622-1.535c0.183-0.151,0.277-0.322,0.284-0.511
		s-0.014-0.391-0.06-0.604c-0.047-0.214-0.066-0.415-0.06-0.604c0.006-0.189,0.114-0.364,0.324-0.525
		c0.55-0.282,1.117-0.556,1.704-0.822c0.585-0.266,1.193-0.51,1.823-0.734c0.289-0.103,0.591-0.21,0.906-0.322
		c0.315-0.112,0.623-0.2,0.926-0.265c0.303-0.064,0.601-0.077,0.896-0.038c0.294,0.039,0.584,0.166,0.867,0.382
		c0.099,0.195,0.181,0.382,0.244,0.561c0.063,0.178,0.132,0.37,0.204,0.575c0.154,0.434,0.295,0.873,0.424,1.316
		c0.128,0.443,0.27,0.882,0.424,1.317c0.145,0.408,0.313,0.801,0.508,1.179c0.192,0.377,0.423,0.734,0.691,1.07
		c0.03,0.42,0.133,0.873,0.305,1.359c0.154,0.434,0.326,0.855,0.516,1.262s0.356,0.815,0.502,1.224
		c0.199,0.562,0.315,1.118,0.349,1.667C348.186,139.107,348.021,139.663,347.659,140.223z"/>
	<path fill="#5d091e" d="M355.333,171.133c0.054,0.652,0.018,1.148-0.108,1.487s-0.344,0.594-0.654,0.766
		c-0.311,0.171-0.706,0.298-1.187,0.379s-1.03,0.214-1.649,0.398c-0.806,0.083-1.606,0.193-2.403,0.328
		c-0.797,0.135-1.594,0.27-2.391,0.405l-3.173,0.538c-0.302-0.108-0.626-0.231-0.975-0.371c-0.349-0.139-0.604-0.354-0.767-0.644
		l-0.052-0.309c-0.039-0.232-0.087-0.469-0.142-0.71c-0.056-0.243-0.104-0.492-0.148-0.749c-0.101-0.592-0.069-0.402,0.092-0.867
		c0.162-0.464,0.696-0.773,1.603-0.926c0.274-0.046,0.544-0.086,0.808-0.117c0.263-0.032,0.531-0.07,0.807-0.117
		c0.33-0.056,0.676-0.141,1.038-0.255c0.362-0.115,0.511-1.082,0.445-1.468c-0.074-0.438-0.319-0.714-0.734-0.829
		c-2.911,0.334-5.864,0.755-8.858,1.263c-0.715,0.121-1.415,0.246-2.099,0.375c-0.686,0.129-1.369,0.265-2.051,0.407
		c-0.203,0.14-0.364,0.313-0.484,0.519c-0.121,0.205-0.235,0.41-0.342,0.613c-0.107,0.203-0.236,0.397-0.389,0.582
		c-0.153,0.185-0.362,0.326-0.628,0.424c-0.376,0.117-0.746,0.226-1.11,0.327s-0.739,0.185-1.123,0.25
		c-0.551,0.093-1.102,0.173-1.655,0.241c-0.555,0.067-1.105,0.147-1.655,0.241c-0.364-0.15-0.65-0.373-0.855-0.669
		c-0.206-0.296-0.374-0.625-0.506-0.986s-0.223-0.73-0.272-1.105c-0.049-0.375-0.1-0.717-0.152-1.026
		c-0.101-0.592-0.189-1.159-0.267-1.702c-0.078-0.542-0.163-1.084-0.254-1.625c-0.131-0.771-0.299-1.511-0.503-2.217
		c0.006-0.133-0.016-0.341-0.063-0.624c-0.044-0.258-0.094-0.514-0.151-0.769c-0.058-0.255-0.108-0.511-0.151-0.768
		c-0.053-0.309-0.071-0.59-0.059-0.844c0.014-0.254,0.087-0.491,0.219-0.712c0.132-0.221,0.34-0.409,0.626-0.562
		c0.284-0.154,0.688-0.275,1.21-0.364c0.467-0.079,0.946-0.127,1.438-0.145c0.491-0.018,0.971-0.065,1.438-0.145
		c0.22-0.037,0.456-0.104,0.708-0.199c0.252-0.096,0.502-0.165,0.75-0.207c0.356-0.06,0.634-0.008,0.832,0.157
		c0.197,0.165,0.379,0.358,0.544,0.583c0.165,0.223,0.341,0.432,0.529,0.625c0.188,0.192,0.451,0.287,0.79,0.283
		c0.408-0.096,0.817-0.178,1.229-0.248s0.824-0.14,1.236-0.209c1.319-0.223,2.606-0.421,3.863-0.595s2.53-0.369,3.822-0.588
		c0.55-0.093,1.078-0.183,1.587-0.269c0.508-0.086,1.032-0.202,1.573-0.346c0.079-0.199,0.098-0.427,0.054-0.684
		c-0.026-0.154-0.067-0.313-0.123-0.476s-0.273-0.714-0.327-0.864l-0.375-0.214c-0.143-0.002-0.275,0-0.401,0.008
		c-0.126,0.008-0.258,0.024-0.395,0.047c-0.357,0.061-0.705,0.139-1.042,0.236s-0.684,0.175-1.041,0.236
		c-0.467,0.079-0.843,0.07-1.128-0.027s-0.516-0.25-0.692-0.458c-0.177-0.208-0.147-0.062-0.238-0.351
		c-0.092-0.289-0.166-0.601-0.223-0.935c-0.147-0.875-0.091-1.54,0.171-1.994c0.263-0.455,0.792-0.75,1.589-0.884
		c0.329-0.056,0.676-0.095,1.04-0.117c0.363-0.022,0.737-0.065,1.122-0.131c0.439-0.074,0.815-0.191,1.128-0.35
		c0.366-0.009,0.728-0.044,1.085-0.104c0.356-0.061,0.714-0.121,1.071-0.182l1.483-0.251c0.385-0.065,0.816-0.146,1.295-0.239
		c0.479-0.095,0.938-0.139,1.377-0.134c0.438,0.005,0.821,0.092,1.146,0.262c0.325,0.169,0.525,0.473,0.6,0.911
		c0.178,0.551,0.322,1.149,0.431,1.792c0.127,0.746,0.215,1.479,0.267,2.198c0.051,0.719,0.138,1.439,0.26,2.159
		c0.108,0.643,0.291,1.261,0.547,1.853c0.256,0.592,0.438,1.209,0.547,1.853c0.196,1.158,0.336,2.318,0.421,3.482
		c0.083,1.163,0.224,2.324,0.42,3.482c0.087,0.514,0.186,1.014,0.296,1.498C354.982,170.146,355.135,170.637,355.333,171.133z"/>
	<path fill="#5d091e" d="M356.292,187.332l-0.32,3.695c-0.203,0.427-0.494,0.7-0.873,0.819c-0.379,0.119-0.805,0.174-1.278,0.165
		c-0.307-0.006-0.6-0.018-0.877-0.036c-0.279-0.019-0.543-0.03-0.794-0.035c-0.334-0.006-0.684,0-1.046,0.018
		c-0.362,0.018-0.711,0.024-1.045,0.018c-0.475-0.009-0.905-0.075-1.293-0.196s-0.731-0.375-1.03-0.761
		c-0.727,0.087-1.412,0.263-2.059,0.53c-0.646,0.266-1.651,2.082-1.899,2.914c0.493,0.465,1.077,0.838,1.756,1.117
		c0.677,0.279,1.333,0.564,1.969,0.855c0.278-0.02,0.504-0.117,0.675-0.291c0.171-0.174,0.396-0.284,0.675-0.329
		c0.503-0.066,1.02-0.107,1.55-0.122c0.529-0.015,1.072-0.017,1.631-0.006c0.528,0.01,1.058,0.033,1.587,0.069
		c0.528,0.035,1.07,0.097,1.627,0.184c0.33,0.209,0.541,0.479,0.632,0.811c0.091,0.331,0.134,0.68,0.126,1.047
		c-0.007,0.367-0.014,0.741-0.021,1.121s0.041,0.735,0.146,1.067c0.104,0.331,0.153,0.725,0.145,1.181
		c-0.011,0.506-0.083,1.018-0.219,1.535c-0.135,0.517-0.236,1.028-0.302,1.534c-0.399,0.473-0.886,0.768-1.459,0.884
		c-0.574,0.115-1.182,0.167-1.822,0.154c-0.39-0.007-0.793-0.028-1.211-0.062c-0.417-0.034-0.835-0.054-1.253-0.062
		c-0.278-0.005-0.488,0.003-0.628,0.026c-0.558-0.011-0.945-0.107-1.165-0.289c-0.22-0.182-0.368-0.387-0.447-0.617
		c-0.079-0.229-0.158-0.459-0.237-0.688s-0.243-0.398-0.492-0.504c-0.634-0.418-1.295-0.779-1.985-1.083
		c-0.691-0.305-1.389-0.616-2.094-0.934c-0.704-0.318-1.395-0.661-2.07-1.029c-0.676-0.368-1.315-0.799-1.919-1.292
		c-0.384-0.337-0.853-0.581-1.407-0.73c-0.555-0.15-1.11-0.23-1.667-0.242c-0.726-0.014-1.451,0.073-2.18,0.262
		c-0.142,0.098-0.262,0.216-0.362,0.354c-0.101,0.137-0.193,0.275-0.279,0.413c-0.087,0.137-0.187,0.263-0.3,0.375
		c-0.114,0.112-0.27,0.204-0.466,0.276c-0.585-0.012-1.17-0.01-1.756,0.004c-0.586,0.013-1.171,0.015-1.756,0.003
		c-0.446-0.008-0.898-0.024-1.358-0.045c-0.459-0.022-0.869-0.1-1.229-0.233c-0.359-0.134-0.655-0.342-0.887-0.625
		c-0.23-0.284-0.342-0.678-0.332-1.185c0.006-0.279,0.025-0.551,0.058-0.816c0.033-0.266,0.053-0.538,0.058-0.816l0.005-0.266
		c0.032-0.203,0.05-0.386,0.053-0.55c0.004-0.165,0.007-0.348,0.011-0.551c0.017-0.861-0.021-1.729-0.116-2.606
		c-0.094-0.876-0.133-1.757-0.116-2.644c0.018-0.861,0.131-1.657,0.34-2.388c0.395-0.246,0.815-0.402,1.264-0.47
		c0.446-0.067,0.907-0.109,1.382-0.125c0.474-0.016,0.947-0.014,1.421,0.009c0.474,0.021,0.934-0.001,1.381-0.068l2.126,0.346
		c0.321,0.69,0.806,1.168,1.456,1.435c0.649,0.266,1.337,0.406,2.062,0.42l0.376,0.007c0.588-0.141,1.148-0.333,1.684-0.576
		c0.534-0.243,1.068-0.505,1.604-0.786c0.535-0.281,1.057-0.568,1.564-0.863c0.507-0.294,1.041-0.55,1.604-0.767
		c0.424-0.295,0.902-0.546,1.436-0.751c0.533-0.205,1.054-0.423,1.56-0.654c0.507-0.231,0.972-0.513,1.396-0.847
		c0.425-0.334,0.753-0.778,0.987-1.33c0.227-0.199,0.459-0.327,0.697-0.386s0.496-0.085,0.775-0.08
		c0.307,0.006,0.633,0.024,0.981,0.057c0.348,0.032,0.688,0.051,1.023,0.058c0.277,0.005,0.564-0.002,0.857-0.021
		c0.293-0.02,0.578-0.027,0.857-0.021c0.501,0.01,0.96,0.088,1.375,0.236c0.415,0.147,0.757,0.452,1.027,0.913
		c0.101,0.509,0.195,1.036,0.282,1.583c0.087,0.546,0.125,1.098,0.114,1.655c-0.005,0.279-0.025,0.551-0.058,0.816
		C356.483,186.784,356.408,187.055,356.292,187.332z"/>
	<g>
		<path fill="#5d091e" d="M322.751,90.484c-0.202-0.829-0.509-1.623-0.921-2.38c-0.412-0.758-0.901-1.478-1.467-2.16
			c-0.567-0.683-1.109-1.369-1.626-2.057c-0.086-0.062-0.176-0.152-0.271-0.27c-0.143-0.178-0.269-0.369-0.379-0.573
			c-0.11-0.204-0.237-0.395-0.38-0.572c-0.175-0.218-0.369-0.37-0.582-0.458l-0.881-1.096c-0.492-0.612-0.99-1.22-1.492-1.824
			c-0.503-0.603-1-1.211-1.492-1.823c-0.206-0.257-0.408-0.509-0.606-0.755c-0.199-0.247-0.391-0.508-0.574-0.782
			c-0.203-0.163-0.39-0.362-0.561-0.598c-0.172-0.236-0.357-0.444-0.557-0.625s-0.421-0.312-0.664-0.393
			c-0.244-0.081-0.527-0.056-0.852,0.075l-4.349,3.397l-0.372,0.738c0.147,0.628,0.091,1.17-0.17,1.624
			c-0.262,0.454-0.62,0.863-1.076,1.23c-0.348,0.279-0.717,0.543-1.106,0.792c-0.391,0.248-0.76,0.513-1.107,0.792
			c-0.391,0.314-0.696,0.625-0.915,0.93c-0.429,0.312-0.842,0.62-1.241,0.924c-0.398,0.304-0.805,0.623-1.217,0.954
			c-0.631,0.506-1.236,1.009-1.817,1.509c-0.582,0.5-1.161,1.014-1.737,1.542c-0.206,0.1-0.407,0.172-0.604,0.217
			c-0.197,0.044-0.366-0.022-0.51-0.2l-0.071-0.089c-0.395-0.268-0.76-0.356-1.097-0.264c-0.337,0.092-0.669,0.269-0.994,0.531
			c-0.283,0.227-0.555,0.478-0.816,0.753c-0.262,0.275-0.522,0.518-0.783,0.727c-0.195,0.157-0.345,0.261-0.447,0.311l-0.326,0.262
			c-0.174,0.14-0.352,0.274-0.533,0.404s-0.359,0.265-0.533,0.404c-0.261,0.209-0.473,0.436-0.634,0.679s-0.221,0.526-0.176,0.849
			c0.49,0.744,1.023,1.452,1.601,2.126c0.577,0.673,1.11,1.382,1.602,2.126c0.229,0.108,0.432,0.27,0.606,0.488
			c0.19,0.237,0.347,0.509,0.469,0.817c0.122,0.308,0.286,0.59,0.493,0.847c0.143,0.178,0.324,0.348,0.545,0.512
			c0.222,0.164,0.403,0.334,0.546,0.512s0.274,0.364,0.396,0.559c0.122,0.195,0.253,0.382,0.396,0.56
			c0.222,0.276,0.05,0.043,0.236,0.12s0.374,0.098,0.56,0.062c0.186-0.036,0.366-0.1,0.543-0.192
			c0.175-0.092,0.363-0.17,0.563-0.233c0.694-0.558,1.406-1.13,2.134-1.715c0.728-0.584,1.423-1.176,2.087-1.774
			c0.185-0.214,0.275-0.425,0.271-0.631c-0.006-0.208-0.011-0.423-0.012-0.649c-0.003-0.225,0.05-0.471,0.158-0.737
			s0.368-0.564,0.781-0.896c0.478-0.383,0.84-0.634,1.086-0.75s0.441-0.152,0.586-0.105c0.145,0.046,0.658,0.55,0.789,0.689
			c0.129,0.139,0.639,0.898,0.862,1.043c0.017,0.376-0.075,0.718-0.275,1.025s-0.349,0.646-0.444,1.015
			c-0.361,0.485-0.679,0.991-0.951,1.52c-0.272,0.528-0.526,1.057-0.762,1.587c-0.236,0.53-0.49,1.059-0.763,1.587
			s-0.59,1.035-0.95,1.52c-0.091,0.333-0.23,0.648-0.42,0.946s-0.378,0.597-0.567,0.895s-0.332,0.6-0.427,0.904
			c-0.097,0.304-0.098,0.646-0.006,1.028c0.48,0.687,0.643,0.785,1.152,1.53c0.509,0.744,1.041,1.462,1.596,2.154
			c0.396,0.493,0.834,0.971,1.312,1.432c0.229,0.108,0.475,0.146,0.735,0.115c0.261-0.031,0.524-0.104,0.789-0.219
			s0.524-0.259,0.779-0.431c0.255-0.173,0.48-0.337,0.676-0.494c0.151-0.122,0.27-0.265,0.353-0.429
			c0.082-0.164,0.199-0.307,0.352-0.429c0.131-0.105,0.281-0.161,0.454-0.169c0.076-0.127,0.171-0.243,0.282-0.349
			s0.222-0.202,0.33-0.29l0.782-0.628c0.239-0.192,0.431-0.387,0.576-0.584c0.145-0.198,0.211-0.438,0.199-0.721
			c-0.327-0.583-0.362-1.229-0.108-1.936c0.253-0.708,0.566-1.341,0.939-1.9c0.17-0.233,0.315-0.497,0.438-0.791
			c0.122-0.292,0.242-0.577,0.362-0.851c0.118-0.274,0.255-0.539,0.409-0.792c0.153-0.253,0.35-0.476,0.589-0.668
			c2.791,0.227,5.284-0.541,7.479-2.304c0.412-0.332,0.841-0.733,1.285-1.204c0.443-0.471,0.84-0.967,1.188-1.491
			c0.348-0.523,0.639-1.074,0.872-1.651c0.232-0.578,0.348-1.157,0.345-1.74C322.94,92.21,322.953,91.313,322.751,90.484z
			 M313.783,91.247l-0.04,0.188l-0.126,0.145c-0.215,0.249-0.401,0.435-0.569,0.571c-0.812,0.651-1.522,0.968-2.175,0.968
			c-0.161,0-0.319-0.02-0.471-0.059c-0.678-0.176-1.265-0.57-1.747-1.17l-0.761-0.946c-0.022-0.029-0.048-0.052-0.078-0.075
			l-0.373-0.27l0.071-0.455c0.093-0.589,0.377-1.09,0.845-1.489c0.312-0.267,0.619-0.553,0.921-0.856l0.056-0.055l0.064-0.043
			c0.512-0.336,1.022-0.571,1.517-0.697c0.119-0.031,0.243-0.046,0.367-0.046c0.612,0,1.196,0.357,1.787,1.092
			C313.803,88.961,314.042,90.037,313.783,91.247z"/>
	</g>
	<g>
		<path fill="#5d091e" d="M54.986,122.936C54.912,122.977,55.286,122.978,54.986,122.936L54.986,122.936z"/>
		<path fill="#5d091e" d="M69.297,116.902c-0.139-0.223-0.317-0.43-0.535-0.62c-0.217-0.19-0.458-0.364-0.722-0.521
			c-0.264-0.157-0.509-0.291-0.735-0.4c-0.175-0.085-0.354-0.131-0.538-0.136c-0.184-0.005-0.363-0.05-0.539-0.136
			c-0.15-0.073-0.266-0.186-0.347-0.338c-0.147-0.015-0.292-0.051-0.436-0.107c-0.143-0.055-0.277-0.114-0.403-0.175l-0.902-0.44
			c-0.275-0.134-0.534-0.224-0.774-0.271c-0.241-0.047-0.486-0.005-0.736,0.127c-0.389,0.543-0.958,0.851-1.706,0.923
			c-0.748,0.072-1.454,0.059-2.12-0.04c-0.283-0.054-0.584-0.074-0.901-0.059c-0.316,0.015-0.625,0.027-0.924,0.035
			c-0.299,0.01-0.596-0.001-0.891-0.033c-0.294-0.031-0.58-0.113-0.855-0.248c-0.984-2.622-2.741-4.55-5.271-5.784
			c-0.476-0.232-1.021-0.448-1.636-0.65c-0.615-0.201-1.233-0.348-1.855-0.44c-0.622-0.092-1.244-0.12-1.865-0.085
			s-1.195,0.178-1.721,0.429c-0.968,0.205-1.784,0.575-2.448,1.11c-0.664,0.536-1.251,1.151-1.761,1.847
			c-0.509,0.696-0.953,1.445-1.329,2.248c-0.376,0.804-0.766,1.586-1.168,2.348c-0.02,0.104-0.062,0.223-0.129,0.36
			c-0.1,0.205-0.219,0.401-0.356,0.587c-0.137,0.187-0.256,0.382-0.356,0.587c-0.123,0.25-0.177,0.491-0.167,0.722l-0.616,1.264
			c-0.344,0.706-0.682,1.415-1.014,2.127c-0.332,0.712-0.67,1.421-1.014,2.126c-0.144,0.296-0.286,0.586-0.425,0.871
			c-0.139,0.285-0.292,0.569-0.462,0.853c-0.061,0.252-0.162,0.507-0.302,0.762c-0.14,0.256-0.25,0.513-0.329,0.77
			s-0.103,0.514-0.072,0.768c0.031,0.255,0.174,0.501,0.431,0.738l4.926,2.487l0.826,0.022c0.506-0.401,1.02-0.581,1.542-0.538
			c0.521,0.043,1.045,0.193,1.571,0.449c0.401,0.196,0.796,0.417,1.188,0.664s0.788,0.468,1.188,0.664
			c0.451,0.22,0.861,0.364,1.231,0.431c0.465,0.255,0.919,0.498,1.365,0.729s0.907,0.463,1.382,0.695
			c0.727,0.354,1.44,0.688,2.14,1.001c0.7,0.314,1.412,0.619,2.135,0.915c0.178,0.144,0.329,0.294,0.453,0.454
			c0.124,0.16,0.136,0.341,0.036,0.546l-0.05,0.103c-0.074,0.471,0.002,0.84,0.229,1.105c0.227,0.266,0.528,0.49,0.904,0.673
			c0.326,0.159,0.668,0.298,1.029,0.417c0.36,0.12,0.69,0.252,0.991,0.399c0.226,0.11,0.383,0.201,0.472,0.272l0.376,0.183
			c0.201,0.098,0.398,0.202,0.593,0.31c0.195,0.11,0.393,0.213,0.593,0.311c0.3,0.146,0.596,0.242,0.885,0.283
			c0.29,0.043,0.57-0.024,0.843-0.202c0.463-0.76,0.877-1.545,1.241-2.354c0.363-0.809,0.777-1.593,1.241-2.354
			c0-0.254,0.061-0.506,0.183-0.756c0.133-0.273,0.312-0.531,0.54-0.773c0.226-0.242,0.412-0.511,0.556-0.807
			c0.1-0.205,0.176-0.442,0.231-0.712c0.054-0.27,0.235-0.274,0.36-0.466c0.125-0.193,0.322-0.373,0.422-0.578
			c0.156-0.319,0.275-0.438,0.266-0.641c-0.01-0.202,0.005-0.38-0.106-0.534c-0.112-0.153-0.247-0.29-0.405-0.409
			c-0.158-0.119-0.309-0.256-0.451-0.41c-0.801-0.391-1.622-0.791-2.461-1.2c-0.839-0.409-1.67-0.786-2.494-1.131
			c-0.272-0.076-0.501-0.068-0.687,0.024c-0.185,0.093-0.378,0.189-0.582,0.287c-0.203,0.099-0.448,0.155-0.734,0.17
			c-0.287,0.016-0.667-0.093-1.144-0.325c-0.55-0.269-0.931-0.489-1.142-0.663c-0.21-0.172-0.325-0.334-0.345-0.485
			c-0.02-0.15,0.006-0.314,0.077-0.491c0.071-0.177,1.124-2.397,1.16-2.662c0.334-0.175,0.682-0.238,1.045-0.188c0,0,0,0,0,0
			c0.015-0.008,0.043-0.018,0.107-0.03c0.592,0.12,1.186,0.191,1.78,0.212c0.594,0.022,1.181,0.026,1.761,0.013
			c0.58-0.013,1.167-0.008,1.761,0.013c0.594,0.022,1.187,0.093,1.78,0.213c0.339-0.06,0.684-0.068,1.035-0.024
			c0.351,0.044,0.701,0.088,1.052,0.132c0.351,0.044,0.684,0.044,0.999,0.001c0.316-0.043,0.626-0.188,0.932-0.433
			c0.417-0.727,0.853-0.479,1.31-1.257c0.456-0.778,0.879-1.565,1.268-2.362c0.278-0.569,0.523-1.167,0.737-1.797
			C69.506,117.363,69.437,117.125,69.297,116.902z M47.715,121.195l-0.533,1.094c-0.014,0.029-0.025,0.064-0.033,0.102l-0.086,0.45
			l-0.439,0.129c-0.225,0.066-0.454,0.1-0.681,0.1h0c-0.345,0-0.69-0.077-1.026-0.229c-0.375-0.169-0.764-0.325-1.167-0.469
			l-0.073-0.026l-0.066-0.041c-0.523-0.319-0.953-0.681-1.277-1.074c-0.476-0.575-0.466-1.381,0.028-2.395
			c0.513-1.051,1.384-1.726,2.589-2.006l0.188-0.043l0.185,0.052c0.32,0.09,0.569,0.179,0.761,0.273
			c1.164,0.567,1.801,1.224,1.947,2.005C48.159,119.803,48.053,120.502,47.715,121.195z"/>
	</g>
	<g>
		<path fill="#5d091e" d="M130.393,61.961c-0.073-0.279-0.176-0.558-0.307-0.836c-0.131-0.278-0.26-0.526-0.385-0.743
			c-0.097-0.168-0.221-0.307-0.37-0.414s-0.273-0.245-0.37-0.414c-0.084-0.145-0.116-0.302-0.098-0.474
			c-0.114-0.095-0.214-0.206-0.302-0.333c-0.087-0.126-0.166-0.25-0.235-0.371l-0.501-0.869c-0.153-0.265-0.316-0.484-0.489-0.659
			c-0.173-0.173-0.4-0.275-0.682-0.307c-0.626,0.233-1.27,0.17-1.93-0.19c-0.661-0.358-1.238-0.765-1.734-1.22
			c-0.205-0.203-0.443-0.388-0.714-0.553c-0.271-0.165-0.533-0.328-0.786-0.488c-0.253-0.159-0.493-0.334-0.72-0.526
			c-0.227-0.19-0.417-0.418-0.57-0.685c0.652-2.723,0.275-5.305-1.131-7.743c-0.264-0.458-0.595-0.943-0.992-1.455
			c-0.397-0.51-0.827-0.978-1.291-1.402c-0.464-0.424-0.963-0.796-1.498-1.115c-0.535-0.319-1.09-0.521-1.667-0.607
			c-0.916-0.372-1.8-0.522-2.65-0.45c-0.851,0.073-1.682,0.254-2.493,0.545c-0.812,0.292-1.599,0.665-2.359,1.119
			c-0.761,0.456-1.522,0.886-2.282,1.292c-0.074,0.075-0.176,0.15-0.308,0.226c-0.197,0.114-0.405,0.209-0.624,0.288
			c-0.218,0.078-0.426,0.173-0.624,0.287c-0.242,0.14-0.422,0.308-0.542,0.505l-1.218,0.703c-0.68,0.392-1.357,0.791-2.03,1.195
			c-0.673,0.405-1.351,0.803-2.031,1.195c-0.285,0.165-0.565,0.326-0.839,0.484c-0.275,0.158-0.562,0.308-0.86,0.448
			c-0.191,0.175-0.417,0.33-0.676,0.462c-0.26,0.134-0.494,0.285-0.704,0.454c-0.209,0.169-0.373,0.368-0.49,0.596
			c-0.117,0.229-0.136,0.513-0.056,0.853l2.69,4.818l0.672,0.481c0.644-0.049,1.17,0.089,1.578,0.417
			c0.408,0.328,0.759,0.745,1.051,1.252c0.223,0.387,0.427,0.792,0.613,1.215c0.186,0.424,0.391,0.829,0.613,1.215
			c0.25,0.435,0.51,0.784,0.779,1.046c0.242,0.472,0.483,0.928,0.723,1.369c0.239,0.441,0.492,0.891,0.756,1.349
			c0.404,0.701,0.808,1.376,1.213,2.027c0.404,0.652,0.824,1.303,1.257,1.953c0.067,0.219,0.108,0.428,0.122,0.629
			c0.013,0.202-0.079,0.358-0.276,0.473l-0.099,0.057c-0.325,0.349-0.469,0.697-0.429,1.044c0.039,0.347,0.164,0.702,0.372,1.064
			c0.181,0.314,0.387,0.621,0.619,0.921c0.232,0.301,0.432,0.596,0.599,0.885c0.125,0.217,0.205,0.381,0.238,0.49l0.209,0.362
			c0.111,0.193,0.217,0.39,0.317,0.589c0.101,0.2,0.207,0.396,0.318,0.589c0.167,0.29,0.358,0.534,0.575,0.73
			c0.216,0.198,0.486,0.299,0.811,0.304c0.81-0.37,1.591-0.789,2.346-1.256c0.754-0.467,1.536-0.885,2.346-1.256
			c0.142-0.21,0.333-0.385,0.575-0.524c0.264-0.152,0.556-0.265,0.88-0.338c0.323-0.074,0.627-0.192,0.913-0.357
			c0.197-0.114,0.394-0.268,0.589-0.461c0.196-0.193,0.028-0.08,0.226-0.193c0.198-0.114,0.402-0.216,0.613-0.306
			c0.211-0.09,0.141,0.046,0.338-0.068c0.307-0.177,0.513-0.352,0.618-0.525c0.104-0.172,0.153-0.354,0.147-0.543
			c-0.007-0.189-0.042-0.377-0.106-0.566c-0.064-0.188-0.113-0.385-0.145-0.592c-0.445-0.772-0.901-1.562-1.368-2.372
			c-0.466-0.809-0.944-1.586-1.434-2.334c-0.183-0.216-0.377-0.337-0.583-0.364c-0.206-0.026-0.419-0.055-0.643-0.088
			c-0.223-0.032-0.458-0.122-0.704-0.27c-0.247-0.147-0.501-0.451-0.766-0.91c-0.306-0.531-0.498-0.927-0.575-1.188
			c-0.078-0.261,0.193-0.697,0.261-0.833c0.068-0.135,0.545-0.523,0.703-0.631c0.158-0.107,0.758-0.323,0.936-0.522
			c0.375,0.042,0.699,0.185,0.971,0.429c0.273,0.245,0.584,0.443,0.935,0.595c0.424,0.431,0.876,0.822,1.356,1.172
			s0.964,0.683,1.452,0.996c0.488,0.314,0.971,0.646,1.452,0.997c0.479,0.351,0.932,0.741,1.356,1.172
			c0.314,0.14,0.605,0.327,0.871,0.559c0.266,0.233,0.532,0.466,0.797,0.698c0.266,0.233,0.542,0.42,0.828,0.561
			c0.286,0.141,0.624,0.195,1.015,0.163c0.752-0.37,1.102-0.686,1.916-1.074c0.813-0.389,1.604-0.805,2.373-1.248
			c0.548-0.316,1.087-0.675,1.616-1.077c0.142-0.21,0.218-0.446,0.227-0.71C130.498,62.512,130.467,62.241,130.393,61.961z
			 M111.624,52.707c-0.277,0.641-0.756,1.162-1.423,1.546l-1.054,0.607c-0.028,0.016-0.057,0.039-0.084,0.067l-0.323,0.325
			l-0.437-0.14c-0.568-0.181-1.02-0.539-1.343-1.063c-0.215-0.349-0.45-0.696-0.704-1.04l-0.047-0.063l-0.032-0.072
			c-0.254-0.557-0.408-1.097-0.458-1.604c-0.072-0.743,0.386-1.406,1.364-1.97c0.572-0.33,1.182-0.497,1.813-0.497
			c0.474,0,0.963,0.095,1.455,0.283l0.18,0.069l0.125,0.147c0.215,0.253,0.371,0.467,0.478,0.652
			C111.779,51.076,111.94,51.977,111.624,52.707z"/>
	</g>
	<path fill="#5d091e" d="M155.06,43.584c-0.124-0.721-0.269-1.45-0.437-2.186c-0.168-0.736-0.366-1.463-0.594-2.18
		c-0.82-2.575-1.888-4.678-3.204-6.306c-1.315-1.628-2.768-2.848-4.354-3.658c-1.588-0.811-3.263-1.25-5.025-1.318
		c-1.763-0.067-3.501,0.171-5.215,0.717l-0.76,0.242c-0.187-0.086-0.375-0.114-0.565-0.083c-0.189,0.032-0.381,0.078-0.574,0.139
		c-0.121,0.039-0.251,0.088-0.392,0.147c-0.141,0.06-0.284,0.112-0.428,0.158c-0.049,0.016-0.105,0.026-0.169,0.032
		c-0.064,0.006-0.121,0.017-0.169,0.032c-0.793,0.516-1.745,0.95-2.855,1.303c-0.483,0.154-0.972,0.288-1.467,0.401
		c-0.496,0.114-0.978,0.187-1.446,0.219c-0.306,0.127-0.629,0.237-0.971,0.331c-0.343,0.095-0.665,0.211-0.965,0.351
		c-0.301,0.14-0.557,0.338-0.768,0.595c-0.21,0.258-0.325,0.608-0.343,1.053c0.103,0.406,0.219,0.815,0.351,1.226
		c0.131,0.412,0.264,0.83,0.399,1.255c0.178,0.558,0.367,1.111,0.569,1.661c0.201,0.55,0.423,1.079,0.665,1.587
		c0.1,0.231,0.244,0.391,0.431,0.477c0.187,0.087,0.375,0.159,0.567,0.214c0.19,0.057,0.375,0.137,0.555,0.24
		c0.179,0.104,0.319,0.271,0.419,0.502c0.133,0.338,0.259,0.671,0.377,0.999c0.118,0.329,0.231,0.665,0.341,1.01
		c0.262,0.824,0.502,1.639,0.719,2.447s0.457,1.624,0.719,2.447c0.169,0.532,0.346,1.046,0.531,1.542
		c0.185,0.497,0.398,1,0.639,1.507c-0.038,0.217-0.026,0.44,0.034,0.669c0.06,0.229,0.127,0.464,0.204,0.703
		s0.138,0.476,0.186,0.708c0.048,0.234,0.041,0.463-0.021,0.687c-0.343,0.344-0.54,0.728-0.59,1.153
		c-0.051,0.426-0.039,0.861,0.037,1.305c0.075,0.444,0.184,0.892,0.328,1.343c0.144,0.452,0.239,0.875,0.285,1.269
		c0.133,0.338,0.262,0.699,0.385,1.084c0.123,0.385,0.263,0.743,0.421,1.072c0.158,0.33,0.36,0.609,0.606,0.838
		c0.245,0.229,0.566,0.339,0.962,0.33c1.619-0.428,3.297-0.918,5.035-1.471c0.845-0.269,1.691-0.553,2.54-0.852
		c0.848-0.3,1.682-0.624,2.502-0.972c0.129-0.012,0.242-0.033,0.338-0.064c0.096-0.03,0.205-0.065,0.326-0.104
		c0.386-0.123,0.77-0.274,1.152-0.454c0.381-0.181,0.777-0.335,1.188-0.466c0.329-0.221,0.693-0.411,1.095-0.568
		c0.402-0.157,0.802-0.321,1.2-0.492c0.397-0.17,0.775-0.363,1.131-0.58c0.356-0.215,0.666-0.497,0.928-0.843
		c0.282-0.119,0.529-0.3,0.744-0.544c0.215-0.244,0.401-0.515,0.559-0.814c0.157-0.298,0.314-0.597,0.473-0.896
		c0.157-0.298,0.339-0.583,0.545-0.854c0.014-0.209,0.055-0.413,0.125-0.61c0.07-0.198,0.146-0.397,0.228-0.599
		c0.082-0.201,0.15-0.405,0.204-0.613c0.054-0.207,0.047-0.417-0.021-0.629c0.14-0.98,0.266-1.941,0.378-2.884
		C155.255,45.599,155.228,44.613,155.06,43.584z M145.622,48.719l-0.017,0.255l-0.169,0.191c-0.226,0.256-0.477,0.52-0.752,0.792
		c-0.348,0.343-0.751,0.588-1.201,0.731c-0.228,0.073-0.451,0.109-0.663,0.109c-0.242,0-0.473-0.047-0.685-0.141
		c-0.349-0.152-0.647-0.39-0.884-0.705c-0.204-0.268-0.375-0.587-0.505-0.946c-0.108-0.296-0.202-0.57-0.281-0.818
		c-0.072-0.225-0.142-0.465-0.208-0.722c-0.061-0.228-0.123-0.444-0.187-0.646c-0.123-0.383-0.285-0.777-0.482-1.168l-0.062-0.17
		c-0.066-0.289-0.139-0.577-0.217-0.864c-0.078-0.285-0.162-0.569-0.251-0.852c-0.166-0.521-0.341-1.03-0.526-1.53
		c-0.193-0.52-0.375-1.051-0.548-1.594c-0.149-0.469-0.284-0.958-0.404-1.466c-0.124-0.521-0.211-1.044-0.262-1.558l-0.013-0.138
		l0.037-0.134c0.097-0.353,0.261-0.645,0.488-0.867c0.115-0.113,0.232-0.241,0.352-0.382l0.14-0.166l0.207-0.066
		c0.66-0.208,1.345-0.232,2.021-0.068c0.685,0.167,1.301,0.528,1.833,1.075c0.564,0.7,1.02,1.413,1.403,2.172
		c0.378,0.753,0.7,1.541,0.955,2.343c0.394,1.236,0.661,2.495,0.796,3.742C145.669,46.369,145.698,47.577,145.622,48.719z"/>
	<g>
		<path fill="#5d091e" d="M56.798,144.248c-0.042-0.402-0.217-0.786-0.527-1.152l-5.614-1.5c-0.27-0.068-0.502-0.062-0.695,0.02
			c-0.193,0.082-0.365,0.195-0.517,0.339c-0.151,0.145-0.293,0.305-0.423,0.481c-0.131,0.176-0.293,0.305-0.486,0.386
			c-0.897,0.139-1.803,0.224-2.716,0.253c-0.913,0.03-1.835,0.039-2.766,0.024c-0.931-0.013-1.856-0.019-2.777-0.017
			c-0.92,0.002-1.84,0.057-2.758,0.164c-0.536,0.074-1.092,0.057-1.669-0.05c-0.577-0.106-1.139-0.099-1.688,0.023
			c-0.11-0.132-0.184-0.268-0.22-0.408c-0.036-0.14-0.066-0.278-0.089-0.415c-0.108-0.367-0.311-0.647-0.606-0.84
			c-0.296-0.192-0.633-0.336-1.012-0.433c-0.378-0.096-0.723-0.15-1.036-0.164c-0.313-0.014-0.645-0.065-0.996-0.154
			c-0.351-0.089-0.703-0.204-1.055-0.346c-0.352-0.141-0.704-0.256-1.055-0.345c-0.351-0.089-0.681-0.12-0.989-0.094
			c-0.309,0.026-0.611,0.172-0.908,0.436c-0.157,0.509-0.317,1.024-0.478,1.545c-0.161,0.521-0.307,1.04-0.437,1.555
			c-0.149,0.589-0.252,1.165-0.308,1.725l-0.317,0.743c-0.176,0.583-0.341,1.175-0.493,1.776c-0.152,0.602-0.303,1.197-0.452,1.787
			c-0.236,0.934-0.462,1.882-0.678,2.847c-0.215,0.964-0.417,1.933-0.606,2.904c-0.014,0.285,0.097,0.528,0.333,0.731
			c0.236,0.204,0.543,0.38,0.922,0.528c0.379,0.149,0.78,0.27,1.202,0.363c0.422,0.094,0.809,0.186,1.16,0.274
			c0.433,0.109,0.856,0.223,1.272,0.341c0.416,0.119,0.815,0.187,1.198,0.206s0.743-0.04,1.08-0.177
			c0.336-0.137,0.656-0.402,0.957-0.797c1.894,0.924,3.741,1.888,5.542,2.893c1.801,1.004,3.592,2.021,5.373,3.046
			c0.165,0.146,0.37,0.27,0.617,0.372c0.248,0.102,0.483,0.22,0.708,0.355c0.225,0.135,0.402,0.285,0.533,0.449
			c0.131,0.164,0.173,0.396,0.125,0.698c0.008,0.421,0.146,0.73,0.412,0.928c0.267,0.198,0.592,0.359,0.978,0.482
			c0.386,0.124,0.776,0.229,1.17,0.316c0.395,0.087,0.739,0.233,1.032,0.438c0.081,0.021,0.164,0.035,0.248,0.043
			c0.084,0.008,0.181,0.026,0.288,0.053c0.216,0.055,0.45,0.127,0.7,0.217c0.251,0.09,0.497,0.165,0.74,0.227
			c0.379,0.096,0.762,0.141,1.152,0.135c0.39-0.005,0.733-0.141,1.03-0.406c0.386-0.843,0.691-1.707,0.915-2.591
			c0.218-0.859,0.398-1.741,0.541-2.646c0.143-0.905,0.302-1.818,0.478-2.741c-0.102-0.391-0.323-0.683-0.663-0.873
			s-0.712-0.337-1.118-0.44c-0.216-0.055-0.44-0.104-0.673-0.151c-0.232-0.045-0.457-0.096-0.673-0.151
			c-0.054-0.014-0.12-0.037-0.198-0.07c-0.078-0.032-0.144-0.056-0.198-0.07c-0.37-0.015-0.75-0.072-1.143-0.171
			c-0.391-0.099-0.769-0.168-1.133-0.208c-0.363-0.04-0.704-0.002-1.021,0.114c-0.316,0.116-0.572,0.385-0.765,0.806l-0.284-0.072
			c-0.756-0.191-1.369-0.556-1.836-1.092c0.006-0.704,0.102-1.424,0.289-2.161c0.081-0.319,0.182-1.66,0.302-2.021
			c0.121-0.361,0.278-0.674,0.475-0.938c0.196-0.264,0.455-0.459,0.774-0.588c0.32-0.128,0.71-0.134,1.169-0.018
			c0.189,0.048,0.369,0.132,0.539,0.254c-0.018,0.414,0.078,0.745,0.288,0.994c0.21,0.249,0.468,0.452,0.773,0.607
			c0.306,0.156,0.639,0.286,1.001,0.391c0.361,0.105,0.698,0.223,1.01,0.354c0.114,0.003,0.226,0.018,0.333,0.045
			c0.108,0.027,0.23,0.058,0.365,0.092c0.243,0.062,0.492,0.131,0.745,0.208c0.254,0.078,0.502,0.147,0.745,0.208
			c0.865,0.219,1.506,0.153,1.926-0.198c0.419-0.351,0.756-1.03,1.012-2.037c0.143-0.565,0.259-1.136,0.348-1.715
			c0.089-0.578-0.001-0.252,0.142-0.817c-0.111-0.472,0.119-0.913,0.274-1.527c0.099-0.393,0.228-0.785,0.384-1.177
			c0.157-0.391,0.285-0.783,0.384-1.176C56.808,145.061,56.84,144.651,56.798,144.248z M40.198,153.256
			c-0.071,0.282-0.156,0.589-0.256,0.92c-0.198,0.667-0.739,1.082-1.413,1.082c-0.147,0-0.302-0.02-0.458-0.06
			c-0.487-0.123-0.921-0.388-1.29-0.788c-0.104-0.111-0.206-0.179-0.312-0.206l-0.133-0.04c-0.577-0.294-1.087-0.545-1.605-0.793
			c-0.613-0.292-1.139-0.639-1.562-1.03l-1.67-1.547l3.326-0.269l2.288,0.06c0.817,0.021,1.62,0.13,2.389,0.325l0.535,0.135
			l0.17,0.525c0.107,0.329,0.146,0.655,0.117,0.969C40.303,152.767,40.262,153.006,40.198,153.256z"/>
	</g>
	<g>
		<path fill="#5d091e" d="M101.216,72.815c-0.185-0.208-0.381-0.332-0.587-0.373c-0.207-0.04-0.413-0.043-0.619-0.008
			c-0.207,0.036-0.414,0.089-0.62,0.161c-0.207,0.073-0.414,0.089-0.619,0.048c-0.822-0.387-1.619-0.824-2.392-1.311
			c-0.774-0.486-1.542-0.995-2.306-1.528c-0.764-0.532-1.527-1.055-2.292-1.568c-0.764-0.514-1.557-0.982-2.377-1.408
			c-0.485-0.239-0.937-0.564-1.354-0.976c-0.418-0.411-0.889-0.719-1.412-0.925c-0.018-0.171-0.002-0.325,0.046-0.461
			c0.048-0.136,0.101-0.267,0.158-0.394c0.116-0.364,0.105-0.71-0.033-1.035s-0.336-0.633-0.596-0.925
			c-0.26-0.291-0.515-0.529-0.767-0.716c-0.251-0.186-0.498-0.415-0.739-0.685c-0.241-0.27-0.469-0.562-0.681-0.877
			c-0.213-0.314-0.439-0.607-0.681-0.877s-0.498-0.481-0.768-0.632c-0.271-0.151-0.603-0.199-0.997-0.147
			c-0.415,0.334-0.835,0.671-1.26,1.013c-0.425,0.342-0.836,0.69-1.233,1.044c-0.454,0.405-0.861,0.825-1.221,1.258l-0.679,0.438
			c-0.472,0.385-0.94,0.783-1.403,1.196c-0.463,0.414-0.921,0.822-1.375,1.227c-0.719,0.642-1.437,1.301-2.155,1.979
			c-0.718,0.679-1.428,1.368-2.128,2.067c-0.17,0.228-0.215,0.492-0.134,0.792c0.082,0.301,0.238,0.619,0.469,0.954
			c0.231,0.335,0.496,0.66,0.792,0.974c0.297,0.314,0.567,0.606,0.808,0.876c0.297,0.333,0.584,0.665,0.863,0.995
			c0.278,0.331,0.571,0.611,0.878,0.841s0.638,0.383,0.994,0.458c0.355,0.075,0.769,0.034,1.238-0.125
			c1.052,1.826,2.043,3.658,2.972,5.499c0.93,1.841,1.846,3.685,2.748,5.532c0.054,0.213,0.155,0.431,0.303,0.654
			c0.148,0.223,0.277,0.453,0.387,0.691s0.174,0.461,0.191,0.67c0.016,0.209-0.079,0.426-0.287,0.648
			c-0.229,0.354-0.288,0.687-0.178,1c0.11,0.313,0.29,0.629,0.54,0.947c0.25,0.319,0.514,0.625,0.793,0.917
			c0.278,0.293,0.481,0.606,0.61,0.94c0.056,0.062,0.116,0.121,0.181,0.174c0.065,0.054,0.135,0.123,0.209,0.206
			c0.149,0.167,0.301,0.357,0.458,0.571c0.158,0.215,0.32,0.415,0.487,0.602c0.26,0.292,0.553,0.543,0.879,0.756
			c0.326,0.214,0.686,0.294,1.08,0.241c0.792-0.483,1.528-1.028,2.208-1.635c0.661-0.59,1.305-1.221,1.929-1.89
			c0.625-0.67,1.268-1.337,1.931-2.003c0.135-0.381,0.114-0.747-0.061-1.095c-0.175-0.348-0.401-0.678-0.68-0.99
			c-0.148-0.166-0.306-0.333-0.474-0.502c-0.167-0.167-0.325-0.335-0.473-0.502c-0.037-0.042-0.079-0.098-0.125-0.168
			c-0.046-0.071-0.088-0.127-0.125-0.168c-0.298-0.22-0.582-0.48-0.851-0.782c-0.269-0.301-0.543-0.57-0.822-0.807
			c-0.279-0.236-0.582-0.396-0.909-0.477c-0.327-0.081-0.689-0.001-1.085,0.24l-0.195-0.218c-0.519-0.582-0.823-1.226-0.91-1.933
			c0.399-0.581,0.882-1.124,1.449-1.629c0.246-0.219,0.52-0.445,0.822-0.677c0.302-0.232,1.403-1.071,1.713-1.18
			c0.311-0.109,0.634-0.126,0.971-0.054c0.337,0.073,0.663,0.287,0.979,0.64c0.13,0.146,0.231,0.317,0.305,0.513
			c-0.247,0.333-0.353,0.661-0.318,0.984c0.035,0.324,0.135,0.636,0.301,0.936c0.166,0.3,0.369,0.595,0.61,0.884
			c0.241,0.29,0.454,0.576,0.639,0.859c0.093,0.066,0.177,0.141,0.251,0.224c0.075,0.083,0.158,0.177,0.25,0.28
			c0.167,0.188,0.334,0.384,0.501,0.59c0.167,0.207,0.333,0.402,0.501,0.589c0.594,0.666,1.163,0.971,1.707,0.914
			c0.543-0.056,1.204-0.43,1.979-1.122c0.435-0.388,0.851-0.797,1.249-1.227c0.397-0.43,0.019-0.169,0.454-0.558
			c0.172-0.454,0.496-0.891,0.968-1.312c0.302-0.27,0.628-0.523,0.977-0.76c0.349-0.237,0.674-0.49,0.977-0.76
			c0.321-0.287,0.577-0.609,0.768-0.966s0.26-0.773,0.208-1.25L101.216,72.815z M86.974,75.232
			c-0.096,0.333-0.246,0.626-0.447,0.869c-0.143,0.174-0.311,0.349-0.503,0.521c-0.219,0.195-0.461,0.403-0.729,0.621
			c-0.363,0.299-0.724,0.362-0.961,0.362c-0.3,0-0.745-0.098-1.16-0.562c-0.335-0.375-0.546-0.838-0.629-1.375
			c-0.023-0.152-0.07-0.265-0.143-0.347l-0.089-0.109c-0.312-0.565-0.594-1.059-0.885-1.553c-0.346-0.588-0.587-1.17-0.718-1.728
			l-0.518-2.218l2.907,1.64l1.862,1.33c0.664,0.473,1.269,1.014,1.798,1.606l0.368,0.412L86.974,75.232z"/>
	</g>
</g>
</svg>
