<?xml version="1.0" encoding="utf-8"?>
<!-- Generator: Adobe Illustrator 26.3.1, SVG Export Plug-In . SVG Version: 6.00 Build 0)  -->
<svg version="1.1"
	 id="svg4730" xmlns:rdf="http://www.w3.org/1999/02/22-rdf-syntax-ns#" xmlns:cc="http://creativecommons.org/ns#" xmlns:dc="http://purl.org/dc/elements/1.1/" xmlns:svg="http://www.w3.org/2000/svg"
	 xmlns="http://www.w3.org/2000/svg" xmlns:xlink="http://www.w3.org/1999/xlink" x="0px" y="0px" viewBox="0 0 300 300"
	 style="enable-background:new 0 0 300 300;" xml:space="preserve">
<style type="text/css">
	.st0{clip-path:url(#SVGID_00000123425089956598426650000005939699592848750470_);}
	.st1{fill:#3B5998;}
	.st2{fill:#FFFFFF;}
</style>
<g id="layer1" transform="translate(-33.466291,-429.48076)">
	<g id="g4670" transform="matrix(1.1165523,0,0,-1.1165523,-103.48743,863.08638)">
		<g>
			<defs>
				<rect id="SVGID_1_" x="-59.7" y="-29.1" width="1143.3" height="558.3"/>
			</defs>
			<clipPath id="SVGID_00000035521502171005590040000013204002682402234247_">
				<use xlink:href="#SVGID_1_"  style="overflow:visible;"/>
			</clipPath>
			<g id="g4672" style="clip-path:url(#SVGID_00000035521502171005590040000013204002682402234247_);">
				<g id="g4678" transform="translate(375.7163,120.5527)">
					<path id="path4680" class="st1" d="M-12.1,0C2.7,0,14.7,12,14.7,26.9V240c0,14.8-12,26.9-26.9,26.9h-213.2
						c-14.8,0-26.9-12-26.9-26.9V26.9c0-14.8,12-26.9,26.9-26.9L-12.1,0z"/>
				</g>
				<g id="g4682" transform="translate(307.7046,120.5527)">
					<path id="path4684" class="st2" d="M0,0v103.4h34.7l5.2,40.3H0v25.7C0,181,3.2,189,20,189l21.3,0v36
						c-3.7,0.5-16.4,1.6-31.1,1.6c-30.8,0-51.8-18.8-51.8-53.2v-29.7h-34.8v-40.3h34.8V0H0z"/>
				</g>
			</g>
		</g>
	</g>
</g>
</svg>
