<?xml version="1.0" encoding="utf-8"?>
<!-- Generator: Adobe Illustrator 26.3.1, SVG Export Plug-In . SVG Version: 6.00 Build 0)  -->
<svg version="1.1" id="Logo" xmlns="http://www.w3.org/2000/svg" xmlns:xlink="http://www.w3.org/1999/xlink" x="0px" y="0px"
	 viewBox="0 0 298 298" style="enable-background:new 0 0 298 298;" xml:space="preserve">
<style type="text/css">
	.st0{fill:#01ACED;}
	.st1{fill:#FFFFFF;}
</style>
<g id="Background" transform="translate(375.7163,120.5527)">
	<path id="path4680" class="st0" d="M-107.6,177.4c16.5,0,29.9-13.4,29.9-30V-90.5c0-16.5-13.4-30-30-30h-238c-16.5,0-30,13.4-30,30
		v237.9c0,16.5,13.4,30,30,30H-107.6z"/>
</g>
<g id="Logo_1_">
	<path id="white_background" class="st1" d="M231.4,106.7c0.1,1.8,0.1,3.7,0.1,5.5c0,56.2-42.8,121-121,121v0
		c-23.1,0-45.7-6.6-65.2-19.1c3.4,0.4,6.7,0.6,10.1,0.6c19.1,0,37.8-6.4,52.8-18.2c-18.2-0.3-34.2-12.2-39.7-29.5
		c6.4,1.2,12.9,1,19.2-0.7c-19.8-4-34.1-21.4-34.1-41.7c0-0.2,0-0.4,0-0.5c5.9,3.3,12.5,5.1,19.3,5.3C54.3,116.8,48.5,92,59.8,72.5
		c21.6,26.6,53.4,42.7,87.6,44.4c-3.4-14.8,1.3-30.2,12.3-40.6c17.1-16.1,44.1-15.3,60.2,1.8c9.5-1.9,18.7-5.4,27-10.3
		c-3.2,9.8-9.8,18.2-18.7,23.5c8.4-1,16.7-3.3,24.4-6.7C246.9,93.2,239.7,100.7,231.4,106.7z"/>
</g>
</svg>
