<?xml version="1.0" encoding="utf-8"?>
<!-- Generator: Adobe Illustrator 26.3.1, SVG Export Plug-In . SVG Version: 6.00 Build 0)  -->
<svg version="1.1" id="Layer_1" xmlns="http://www.w3.org/2000/svg" xmlns:xlink="http://www.w3.org/1999/xlink" x="0px" y="0px"
	 viewBox="0 0 448 448" style="enable-background:new 0 0 448 448;" xml:space="preserve">
<style type="text/css">
	.st0{fill:#00BFBF;}
</style>
<g>
	<g>
		<path class="st0" d="M102.44,354.74c-0.06-35.56,0.33-71.12,1.63-106.65c1.27-34.76,4.45-69.42,5.07-104.2
			c0.17-9.53,0.33-19.05,0.93-28.56c0.29-4.65,1.05-9.38,0.67-13.99c-0.37-4.47-0.18-8.66,1.7-12.8c-9.64,0-19.29,0-28.93,0
			c6.52,5.59,9.75,12.98,13.29,20.6c3.92,8.44,8.76,16.44,13.85,24.21c10.75,16.4,22.98,31.76,34.52,47.61
			c24.54,33.72,49.66,66.98,73.16,101.44c16.07,23.55,32.57,47.51,54.8,65.75c10.04,8.24,21.38,14.61,34.5,16.01
			c13.79,1.48,29.94-0.88,37.33-14.02c9.02-16.06,10.97-35.99,13.85-53.86c3.34-20.73,6.97-41.4,10.15-62.15
			c3.17-20.65,6.3-41.3,9.76-61.9c3.4-20.26,6.8-40.57,8.44-61.06c0.8-9.96,1.01-19.9,0.89-29.89c-0.07-5.97,0.47-12.33-1.75-18
			c-4.32-11.01-23.54-9.95-32.52-7.08c-8.47,2.71-16.06,7.63-22.7,13.45c-14.56,12.75-26.42,28.76-38.56,43.73
			c-13.34,16.44-26.42,33.09-39.75,49.53c-26.24,32.37-52.49,64.72-78.56,97.23c-25.31,31.55-51.23,62.91-80.4,91.01
			c-6.98,6.72-14.16,13.26-21.63,19.44c-4.78,3.96,1.6,6.38,5.38,7.18c5.31,1.12,15.85,1.99,20.52-1.88
			c59-48.84,103.7-112.41,151.8-171.36c25.18-30.86,50.04-61.98,75.22-92.84c11.17-13.68,22.13-28.83,35.9-40.08
			c3.12-2.55,6.55-4.7,10.18-6.44c0.76-0.37,1.71-0.62,2.38-1.09c0.55-0.38-17.72-0.69-17.79-0.98c0.26,1.11,1.23,2.17,1.51,3.44
			c1.31,5.93,0.77,12.41,0.85,18.45c0.49,38.43-7.9,76.37-13.8,114.15c-6.02,38.57-11.53,77.26-18.57,115.67
			c-1.66,9.07-3.66,18.21-7.08,26.8c-1.95,4.91-4.8,10.23-8.74,12.8c-0.36,0.24-0.89,0.89-0.27,0.21c0.74-0.82-1.32,0.28,0.45-0.11
			c1.71-0.37,0.32-0.09-0.02-0.03c1.45-0.27,2.92-0.43,4.39-0.43c0.14,0,4.02,0.22,1.53,0.05c0.25,0.02,3.42,0.51,1.07,0.1
			c-0.31-0.05-1.69-0.5-0.19-0.03c1.78,0.55-0.72-0.29-1.06-0.43c-0.58-0.23-1.16-0.45-1.74-0.7c0.19,0.08,1.2,0.57,0.16,0.05
			c-1.19-0.59-2.36-1.22-3.51-1.89c-2.42-1.41-4.75-2.98-7-4.65c-19.64-14.49-34.7-35.56-48.49-55.31
			c-11.01-15.78-21.66-31.79-32.94-47.38c-11.56-15.98-23.35-31.79-35.05-47.67c-11.15-15.14-22.37-30.24-33.51-45.39
			c-10.83-14.73-21.36-29.86-28.99-46.53c-3.18-6.95-6.43-13.46-12.33-18.51c-3.85-3.29-9.58-3.85-14.46-3.85
			c-3.39,0-12.73,0.05-14.46,3.85c-1.44,3.16-2.62,6.39-2.92,9.87c-0.36,4.08,0.36,8.04,0.03,12.14c-0.72,8.84-1.16,17.7-1.33,26.56
			c-0.32,17.24-0.75,34.42-1.96,51.63c-2.5,35.79-3.85,71.66-4.47,107.54c-0.35,20.42-0.46,40.84-0.43,61.27
			C72.46,362.23,102.46,362.31,102.44,354.74L102.44,354.74z"/>
	</g>
</g>
</svg>
